<svg width="45" height="45" viewBox="0 0 45 45" fill="none" xmlns="http://www.w3.org/2000/svg">
<g clip-path="url(#clip0_206_1995)">
<path d="M42.3277 21.6405H40.9525V21.217C40.9525 20.3556 40.2506 19.6549 39.3878 19.6549H38.4336C37.5709 19.6549 36.869 20.3556 36.869 21.217V21.6405H33.2914V21.217C33.2914 20.4146 32.6821 19.7522 31.9013 19.6652V0.702842C31.9013 0.314805 31.5867 0.000244141 31.1987 0.000244141H0.704063C0.316025 0.000244141 0.00146484 0.314805 0.00146484 0.702842V44.2971C0.00146484 44.6852 0.316025 44.9997 0.704063 44.9997H42.3277C43.8003 44.9997 44.9984 43.8775 44.9984 42.4983V24.1393C44.9983 22.7615 43.8003 21.6405 42.3277 21.6405ZM38.2742 21.2169C38.2742 21.1318 38.3472 21.0599 38.4336 21.0599H39.3878C39.4742 21.0599 39.5472 21.1318 39.5472 21.2169V23.9898C39.5472 24.0749 39.4742 24.1467 39.3878 24.1467H38.4336C38.3473 24.1467 38.2742 24.0749 38.2742 23.9898V21.2169ZM36.8689 23.0456V23.9898C36.8689 24.8511 37.5708 25.5519 38.4335 25.5519H39.3877C40.2505 25.5519 40.9524 24.8511 40.9524 23.9898V23.0456H42.3276C43.0253 23.0456 43.593 23.5363 43.593 24.1393V26.7128H19.2972V24.1393C19.2972 23.5363 19.865 23.0456 20.5629 23.0456H21.5469V23.9898C21.5469 24.8511 22.2488 25.5519 23.1115 25.5519H24.0657C24.9284 25.5519 25.6303 24.8511 25.6303 23.9898V23.0456H29.2079V23.9898C29.2079 24.8511 29.9098 25.5519 30.7726 25.5519H31.7266C32.5894 25.5519 33.2914 24.8511 33.2914 23.9898V23.0456H36.8689ZM22.9522 23.9898V21.2169C22.9522 21.1318 23.0251 21.0599 23.1115 21.0599H24.0657C24.1521 21.0599 24.2251 21.1318 24.2251 21.2169V23.9898C24.2251 24.0749 24.1521 24.1467 24.0657 24.1467H23.1115C23.0251 24.1467 22.9522 24.0749 22.9522 23.9898ZM31.7266 21.06C31.813 21.06 31.8861 21.1319 31.8861 21.217V23.9899C31.8861 24.075 31.813 24.1468 31.7266 24.1468H30.7726C30.6862 24.1468 30.6132 24.075 30.6132 23.9899V21.217C30.6132 21.1319 30.6862 21.06 30.7726 21.06H31.7266ZM1.40666 1.40544H30.496V19.6808C29.7649 19.8118 29.208 20.4499 29.208 21.217V21.6405H25.6304V21.217C25.6304 20.3556 24.9286 19.6549 24.0658 19.6549H23.1116C22.249 19.6549 21.547 20.3556 21.547 21.217V21.6405H20.563C19.0903 21.6405 17.892 22.7615 17.892 24.1394V42.4984C17.892 42.8914 17.9896 43.2634 18.1627 43.5946H1.40666V1.40544ZM42.3277 43.5945H20.5629C19.8768 43.5945 19.2972 43.0926 19.2972 42.4983V28.1181H43.5932V42.4983C43.5931 43.1028 43.0254 43.5945 42.3277 43.5945ZM26.5347 30.273H22.9271C22.5391 30.273 22.2245 30.5876 22.2245 30.9756V34.5807C22.2245 34.9688 22.5391 35.2833 22.9271 35.2833H26.5347C26.9227 35.2833 27.2373 34.9688 27.2373 34.5807V30.9756C27.2373 30.5877 26.9227 30.273 26.5347 30.273ZM25.8321 33.8781H23.6297V31.6783H25.8321V33.8781ZM33.1867 30.273H29.5816C29.1935 30.273 28.879 30.5876 28.879 30.9756V34.5807C28.879 34.9688 29.1935 35.2833 29.5816 35.2833H33.1867C33.5747 35.2833 33.8893 34.9688 33.8893 34.5807V30.9756C33.8893 30.5877 33.5747 30.273 33.1867 30.273ZM32.4841 33.8781H30.2843V31.6783H32.4841V33.8781ZM26.5347 36.4292H22.9271C22.5391 36.4292 22.2245 36.7438 22.2245 37.1318V40.7369C22.2245 41.125 22.5391 41.4395 22.9271 41.4395H26.5347C26.9227 41.4395 27.2373 41.125 27.2373 40.7369V37.1318C27.2373 36.7438 26.9227 36.4292 26.5347 36.4292ZM25.8321 40.0343H23.6297V37.8345H25.8321V40.0343ZM33.1867 36.4292H29.5816C29.1935 36.4292 28.879 36.7438 28.879 37.1318V40.7369C28.879 41.125 29.1935 41.4395 29.5816 41.4395H33.1867C33.5747 41.4395 33.8893 41.125 33.8893 40.7369V37.1318C33.8893 36.7438 33.5747 36.4292 33.1867 36.4292ZM32.4841 40.0343H30.2843V37.8345H32.4841V40.0343ZM39.9658 30.273H36.3583C35.9703 30.273 35.6557 30.5876 35.6557 30.9756V34.5807C35.6557 34.9688 35.9703 35.2833 36.3583 35.2833H39.9658C40.3538 35.2833 40.6684 34.9688 40.6684 34.5807V30.9756C40.6684 30.5877 40.3538 30.273 39.9658 30.273ZM39.2632 33.8781H37.0609V31.6783H39.2632V33.8781ZM39.9658 36.4292H36.3583C35.9703 36.4292 35.6557 36.7438 35.6557 37.1318V40.7369C35.6557 41.125 35.9703 41.4395 36.3583 41.4395H39.9658C40.3538 41.4395 40.6684 41.125 40.6684 40.7369V37.1318C40.6684 36.7438 40.3538 36.4292 39.9658 36.4292ZM39.2632 40.0343H37.0609V37.8345H39.2632V40.0343ZM4.31391 12.5668V5.01537C4.31391 4.62733 4.62847 4.31277 5.0165 4.31277H13.1809C13.569 4.31277 13.8835 4.62733 13.8835 5.01537C13.8835 5.40341 13.569 5.71797 13.1809 5.71797H5.7191V11.8642H12.4782V9.72605L11.1716 10.9121C11.0374 11.0339 10.8683 11.0945 10.6994 11.0945C10.5194 11.0945 10.3397 11.0257 10.2029 10.8891L8.60095 9.28958C8.32638 9.01545 8.32603 8.57055 8.60024 8.29598C8.8742 8.02141 9.31919 8.02105 9.59385 8.29519L10.7225 9.42203L14.1137 6.34384C14.401 6.08307 14.8451 6.10442 15.1062 6.39183C15.3669 6.67914 15.3455 7.12343 15.0582 7.38429L13.8835 8.45049V12.5668C13.8835 12.9548 13.569 13.2694 13.1809 13.2694H5.0165C4.62847 13.2694 4.31391 12.9548 4.31391 12.5668ZM4.31391 26.2744V18.7255C4.31391 18.3375 4.62847 18.0229 5.0165 18.0229H13.1809C13.569 18.0229 13.8835 18.3375 13.8835 18.7255C13.8835 19.1136 13.569 19.4281 13.1809 19.4281H5.7191V25.5718H12.4782V23.4361L11.1716 24.6222C11.0374 24.7441 10.8683 24.8046 10.6994 24.8046C10.5192 24.8046 10.3393 24.7357 10.2026 24.5987L8.6006 22.9967C8.3262 22.7223 8.3262 22.2775 8.6006 22.0031C8.8749 21.7287 9.31989 21.7287 9.5942 22.0031L10.7228 23.1317L14.1137 20.0539C14.401 19.793 14.8451 19.8145 15.1062 20.1019C15.3669 20.3892 15.3455 20.8335 15.0582 21.0943L13.8835 22.1605V26.2744C13.8835 26.6625 13.569 26.977 13.1809 26.977H5.0165C4.62847 26.977 4.31391 26.6625 4.31391 26.2744ZM15.1063 33.8123C15.367 34.0997 15.3454 34.544 15.0579 34.8047L13.8835 35.8699V39.9845C13.8835 40.3725 13.569 40.6871 13.1809 40.6871H5.0165C4.62847 40.6871 4.31391 40.3725 4.31391 39.9845V32.4356C4.31391 32.0475 4.62847 31.733 5.0165 31.733H13.1809C13.569 31.733 13.8835 32.0475 13.8835 32.4356C13.8835 32.8236 13.569 33.1382 13.1809 33.1382H5.7191V39.2818H12.4782V37.1444L11.1713 38.3299C11.0372 38.4516 10.8682 38.5121 10.6994 38.5121C10.5194 38.5121 10.3397 38.4433 10.2029 38.3066L8.60095 36.7071C8.32638 36.4329 8.32603 35.988 8.60024 35.7135C8.8742 35.4389 9.31919 35.4385 9.59385 35.7128L10.7226 36.8398L14.114 33.7637C14.4012 33.5031 14.8455 33.5247 15.1063 33.8123ZM17.892 5.01537C17.892 4.62733 18.2065 4.31277 18.5945 4.31277H27.7305C28.1186 4.31277 28.4331 4.62733 28.4331 5.01537C28.4331 5.40341 28.1186 5.71797 27.7305 5.71797H18.5945C18.2065 5.71797 17.892 5.40341 17.892 5.01537ZM17.892 8.78983C17.892 8.4018 18.2065 8.08724 18.5945 8.08724H27.7305C28.1186 8.08724 28.4331 8.4018 28.4331 8.78983C28.4331 9.17787 28.1186 9.49243 27.7305 9.49243H18.5945C18.2065 9.49243 17.892 9.17787 17.892 8.78983Z" fill="#05486A"/>
</g>
<defs>
<clipPath id="clip0_206_1995">
<rect width="45" height="45" fill="white"/>
</clipPath>
</defs>
</svg>
