<svg width="45" height="45" viewBox="0 0 45 45" fill="none" xmlns="http://www.w3.org/2000/svg">
<g clip-path="url(#clip0_206_1997)">
<path d="M36.6182 40.4878L39.4276 33.4528L40.734 33.9745L37.9246 41.0095L36.6182 40.4878Z" fill="#05486A"/>
<path d="M40.7812 38.6719C41.1696 38.6719 41.4844 38.3571 41.4844 37.9688C41.4844 37.5804 41.1696 37.2656 40.7812 37.2656C40.3929 37.2656 40.0781 37.5804 40.0781 37.9688C40.0781 38.3571 40.3929 38.6719 40.7812 38.6719Z" fill="#05486A"/>
<path d="M36.5625 36.5625C36.9508 36.5625 37.2656 36.2477 37.2656 35.8594C37.2656 35.471 36.9508 35.1562 36.5625 35.1562C36.1742 35.1562 35.8594 35.471 35.8594 35.8594C35.8594 36.2477 36.1742 36.5625 36.5625 36.5625Z" fill="#05486A"/>
<path d="M32.3438 32.3438C31.1808 32.3438 30.2344 33.2902 30.2344 34.4531V37.2656C30.2344 38.4286 31.1808 39.375 32.3438 39.375C33.5067 39.375 34.4531 38.4286 34.4531 37.2656V34.4531C34.4531 33.2902 33.5067 32.3438 32.3438 32.3438ZM33.0469 37.2656C33.0469 37.6537 32.7312 37.9688 32.3438 37.9688C31.9563 37.9688 31.6406 37.6537 31.6406 37.2656V34.4531C31.6406 34.065 31.9563 33.75 32.3438 33.75C32.7312 33.75 33.0469 34.065 33.0469 34.4531V37.2656Z" fill="#05486A"/>
<path d="M40.0781 28.5638V18.5934C40.9148 18.1055 41.4844 17.2083 41.4844 16.1719C41.4844 15.6572 41.3353 15.1812 41.0934 14.7656H41.4844C43.0355 14.7656 44.2969 13.5042 44.2969 11.9531C44.2969 10.402 43.0355 9.14062 41.4844 9.14062H41.0934C41.3353 8.72508 41.4844 8.24906 41.4844 7.73438C41.4844 6.18328 40.223 4.92188 38.6719 4.92188H33.7317C34.1782 4.33266 34.4531 3.60703 34.4531 2.8125C34.4531 1.64953 33.5067 0.703125 32.3438 0.703125H19.6587C18.1498 0.703125 16.6873 1.24453 15.5405 2.2268L12.979 4.42266C12.5972 3.87562 11.9658 3.51562 11.25 3.51562H0.703125V21.7969H3.51562V37.2656H27.5491C28.2213 41.2495 31.687 44.2969 35.8594 44.2969C40.512 44.2969 44.2969 40.512 44.2969 35.8594C44.2969 32.7445 42.596 30.0248 40.0781 28.5638ZM40.0781 16.1719C40.0781 16.9474 39.4474 17.5781 38.6719 17.5781H28.8281V14.7656H38.6719C39.4474 14.7656 40.0781 15.3963 40.0781 16.1719ZM42.8906 11.9531C42.8906 12.7287 42.2599 13.3594 41.4844 13.3594H38.6719H28.8281V10.5469H38.6719H41.4844C42.2599 10.5469 42.8906 11.1776 42.8906 11.9531ZM16.4552 3.29484C17.3475 2.53055 18.4852 2.10938 19.6587 2.10938H32.3438C32.7312 2.10938 33.0469 2.42438 33.0469 2.8125C33.0469 3.97547 32.1005 4.92188 30.9375 4.92188H26.0156H25.7245L24.2325 6.4132C23.8402 6.80625 23.2966 7.03125 22.7412 7.03125H21.0938V8.4375H22.7412C23.6798 8.4375 24.563 8.07117 25.2267 7.40742L26.3067 6.32812H30.9375H38.6719C39.4474 6.32812 40.0781 6.95883 40.0781 7.73438C40.0781 8.50992 39.4474 9.14062 38.6719 9.14062H28.8C28.7332 8.42273 28.4358 7.75336 27.9197 7.23727L26.9248 8.23148C27.2454 8.55211 27.4219 8.97891 27.4219 9.43172V17.5781H13.3594V5.94844L16.4552 3.29484ZM11.9531 5.625V17.5781H10.5469V7.73438H9.14062V17.5781H7.73438V4.92188H9.14062V6.32812H10.5469V4.92188H11.25C11.6374 4.92188 11.9531 5.23688 11.9531 5.625ZM2.10938 20.3906V4.92188H6.32812V17.5781H3.51562V20.3906H2.10938ZM4.92188 35.8594V18.9844H28.125H38.6719V27.9141C37.7909 27.6012 36.8466 27.4219 35.8594 27.4219C31.2068 27.4219 27.4219 31.2068 27.4219 35.8594H4.92188ZM35.8594 42.8906C31.9823 42.8906 28.8281 39.7364 28.8281 35.8594C28.8281 31.9823 31.9823 28.8281 35.8594 28.8281C39.7364 28.8281 42.8906 31.9823 42.8906 35.8594C42.8906 39.7364 39.7364 42.8906 35.8594 42.8906Z" fill="#05486A"/>
<path d="M16.1719 20.3906H6.32812V28.8281H16.1719V20.3906ZM14.7656 27.4219H7.73438V21.7969H14.7656V27.4219Z" fill="#05486A"/>
<path d="M23.2031 20.3906H17.5781V24.6094H23.2031V20.3906ZM21.7969 23.2031H18.9844V21.7969H21.7969V23.2031Z" fill="#05486A"/>
<path d="M30.2344 20.3906H24.6094V24.6094H30.2344V20.3906ZM28.8281 23.2031H26.0156V21.7969H28.8281V23.2031Z" fill="#05486A"/>
<path d="M37.2656 20.3906H31.6406V24.6094H37.2656V20.3906ZM35.8594 23.2031H33.0469V21.7969H35.8594V23.2031Z" fill="#05486A"/>
<path d="M6.32812 30.2344H7.73438V31.6406H6.32812V30.2344Z" fill="#05486A"/>
<path d="M9.14062 30.2344H26.0156V31.6406H9.14062V30.2344Z" fill="#05486A"/>
<path d="M6.32812 33.0469H26.0156V34.4531H6.32812V33.0469Z" fill="#05486A"/>
<path d="M17.5781 26.0156H18.9844V27.4219H17.5781V26.0156Z" fill="#05486A"/>
<path d="M20.3906 26.0156H30.2344V27.4219H20.3906V26.0156Z" fill="#05486A"/>
</g>
<defs>
<clipPath id="clip0_206_1997">
<rect width="45" height="45" fill="white"/>
</clipPath>
</defs>
</svg>
