<svg width="45" height="45" viewBox="0 0 45 45" fill="none" xmlns="http://www.w3.org/2000/svg">
<g clip-path="url(#clip0_206_2013)">
<path d="M15 0C8.78681 0 3.75 5.03681 3.75 11.25V19.5C3.75328 22.3981 6.10191 24.7467 9 24.75H9.75V23.25H9C6.93 23.2476 5.25244 21.57 5.25 19.5V11.25C5.25 5.86519 9.61519 1.5 15 1.5C20.3848 1.5 24.75 5.86519 24.75 11.25V19.5C24.7476 21.57 23.07 23.2476 21 23.25H20.25V24.75H21C23.8981 24.7467 26.2467 22.3981 26.25 19.5V11.25C26.25 5.03681 21.2132 0 15 0Z" fill="#05486A"/>
<path d="M6.18074 35.3467L6.72899 34.4834L5.46224 33.6794L4.91399 34.5434C3.25584 37.1564 3.37893 40.5209 5.22374 43.0057V44.9999H6.72374V42.7499C6.72384 42.5796 6.6659 42.4142 6.55949 42.2812C4.96499 40.2879 4.81284 37.5018 6.18074 35.3467Z" fill="#05486A"/>
<path d="M41.25 0H31.5C29.43 0.0024375 27.7524 1.68 27.75 3.75V11.25C27.7524 13.32 29.43 14.9976 31.5 15H33V18C32.9999 18.3033 33.1825 18.5768 33.4628 18.693C33.5538 18.731 33.6514 18.7503 33.75 18.75C33.9489 18.75 34.1396 18.6709 34.2803 18.5303L37.8105 15H41.25C43.32 14.9976 44.9976 13.32 45 11.25V3.75C44.9976 1.68 43.32 0.0024375 41.25 0ZM43.5 11.25C43.5 12.4927 42.4927 13.5 41.25 13.5H37.5C37.3011 13.5 37.1104 13.5791 36.9697 13.7198L34.5 16.1895V14.25C34.5 13.8358 34.1642 13.5 33.75 13.5H31.5C30.2573 13.5 29.25 12.4927 29.25 11.25V3.75C29.25 2.50734 30.2573 1.5 31.5 1.5H41.25C42.4927 1.5 43.5 2.50734 43.5 3.75V11.25Z" fill="#05486A"/>
<path d="M36.75 3.75H31.5V5.25H36.75V3.75Z" fill="#05486A"/>
<path d="M41.25 3.75H38.25V5.25H41.25V3.75Z" fill="#05486A"/>
<path d="M41.25 6.75H31.5V8.25H41.25V6.75Z" fill="#05486A"/>
<path d="M36.75 9.75H31.5V11.25H36.75V9.75Z" fill="#05486A"/>
<path d="M25.086 34.5434L24.5377 33.6794L23.271 34.4834L23.8192 35.3474C25.1872 37.5023 25.0351 40.2882 23.4405 42.2812C23.3341 42.4142 23.2762 42.5796 23.2762 42.7499V44.9999H24.7762V43.0057C26.6211 40.5209 26.7442 37.1564 25.086 34.5434Z" fill="#05486A"/>
<path d="M44.25 25.5H37.5C34.686 25.5033 32.3751 27.7246 32.2605 30.5362L30 34.6057V31.5C29.9967 28.6019 27.6481 26.2533 24.75 26.25H22.0087L21.9885 26.2342L21.975 26.25H20.25C19.4215 26.25 18.75 25.5784 18.75 24.75V22.9852C21.0674 21.6472 22.4964 19.1759 22.5 16.5V10.5C22.4989 9.25732 22.1897 8.03435 21.6 6.94047C21.4111 6.59247 20.9842 6.45119 20.625 6.61797L7.9305 12.591C7.66763 12.7147 7.49991 12.9792 7.5 13.2697V16.5C7.50356 19.1759 8.93259 21.6472 11.25 22.9852V24.75C11.25 25.5784 10.5785 26.25 9.75 26.25H5.25C2.35191 26.2533 0.00328125 28.6019 0 31.5V45H1.5V31.5C1.50244 29.43 3.18 27.7524 5.25 27.75H7.6365L14.3903 37.1865C14.529 37.3804 14.7517 37.4968 14.9902 37.5H15C15.2361 37.5 15.4583 37.3888 15.6 37.2L22.725 27.75H24.75C26.82 27.7524 28.4976 29.43 28.5 31.5V37.5C28.5004 37.9142 28.8365 38.2497 29.2507 38.2493C29.5227 38.249 29.7733 38.1016 29.9055 37.8637L33.441 31.5H37.7407L30.4282 45H32.1345L39.45 31.5H39.75C42.6481 31.4967 44.9967 29.1481 45 26.25C45 25.8358 44.6642 25.5 44.25 25.5ZM9 16.5V13.746L20.5807 8.29647C20.8578 8.9981 21 9.74566 21 10.5V16.5C21 19.8137 18.3137 22.5 15 22.5C11.6863 22.5 9 19.8137 9 16.5ZM15.0157 35.484L12.7013 32.25H17.4533L15.0157 35.484ZM18.588 30.75H11.625L9.47775 27.75H9.75C11.4068 27.75 12.75 26.4068 12.75 24.75V23.6542C14.2146 24.1152 15.7854 24.1152 17.25 23.6542V24.75C17.25 26.4068 18.5932 27.75 20.25 27.75H20.85L18.588 30.75ZM39.75 30H33.825C34.1836 28.255 35.7186 27.0019 37.5 27H43.425C43.0664 28.7449 41.5314 29.998 39.75 30Z" fill="#05486A"/>
</g>
<defs>
<clipPath id="clip0_206_2013">
<rect width="45" height="45" fill="white"/>
</clipPath>
</defs>
</svg>
