<svg width="47" height="48" viewBox="0 0 47 48" fill="none" xmlns="http://www.w3.org/2000/svg">
<g clip-path="url(#clip0_206_2067)">
<path d="M38.2456 42.2961L41.1799 34.9485L42.5444 35.4934L39.6101 42.841L38.2456 42.2961Z" fill="#D03427"/>
<path d="M42.5938 40.3994C42.9993 40.3994 43.3281 40.0706 43.3281 39.665C43.3281 39.2595 42.9993 38.9307 42.5938 38.9307C42.1882 38.9307 41.8594 39.2595 41.8594 39.665C41.8594 40.0706 42.1882 40.3994 42.5938 40.3994Z" fill="#D03427"/>
<path d="M38.1875 38.1963C38.5931 38.1963 38.9219 37.8675 38.9219 37.4619C38.9219 37.0563 38.5931 36.7275 38.1875 36.7275C37.7819 36.7275 37.4531 37.0563 37.4531 37.4619C37.4531 37.8675 37.7819 38.1963 38.1875 38.1963Z" fill="#D03427"/>
<path d="M33.7812 33.79C32.5666 33.79 31.5781 34.7785 31.5781 35.9932V38.9307C31.5781 40.1453 32.5666 41.1338 33.7812 41.1338C34.9959 41.1338 35.9844 40.1453 35.9844 38.9307V35.9932C35.9844 34.7785 34.9959 33.79 33.7812 33.79ZM34.5156 38.9307C34.5156 39.336 34.1859 39.665 33.7812 39.665C33.3766 39.665 33.0469 39.336 33.0469 38.9307V35.9932C33.0469 35.5878 33.3766 35.2588 33.7812 35.2588C34.1859 35.2588 34.5156 35.5878 34.5156 35.9932V38.9307Z" fill="#D03427"/>
<path d="M41.8594 29.842V19.4286C42.7333 18.9189 43.3281 17.9819 43.3281 16.8994C43.3281 16.3619 43.1724 15.8647 42.9198 15.4307H43.3281C44.9482 15.4307 46.2656 14.1132 46.2656 12.4932C46.2656 10.8731 44.9482 9.55566 43.3281 9.55566H42.9198C43.1724 9.12165 43.3281 8.62448 43.3281 8.08691C43.3281 6.46688 42.0107 5.14941 40.3906 5.14941H35.2309C35.6972 4.53401 35.9844 3.77613 35.9844 2.94629C35.9844 1.73163 34.9959 0.743164 33.7812 0.743164H20.5324C18.9564 0.743164 17.4289 1.30863 16.2312 2.33455L13.5558 4.62801C13.1571 4.05666 12.4976 3.68066 11.75 3.68066H0.734375V22.7744H3.67188V38.9307H28.7735C29.4756 43.0916 33.0953 46.2744 37.4531 46.2744C42.3125 46.2744 46.2656 42.3213 46.2656 37.4619C46.2656 34.2086 44.4892 31.3681 41.8594 29.842ZM41.8594 16.8994C41.8594 17.7094 41.2006 18.3682 40.3906 18.3682H30.1094V15.4307H40.3906C41.2006 15.4307 41.8594 16.0894 41.8594 16.8994ZM44.7969 12.4932C44.7969 13.3032 44.1381 13.9619 43.3281 13.9619H40.3906H30.1094V11.0244H40.3906H43.3281C44.1381 11.0244 44.7969 11.6831 44.7969 12.4932ZM17.1866 3.45007C18.1185 2.6518 19.3067 2.21191 20.5324 2.21191H33.7812C34.1859 2.21191 34.5156 2.54091 34.5156 2.94629C34.5156 4.16095 33.5272 5.14941 32.3125 5.14941H27.1719H26.8678L25.3095 6.70702C24.8997 7.11754 24.332 7.35254 23.7519 7.35254H22.0312V8.82129H23.7519C24.7323 8.82129 25.6547 8.43868 26.3479 7.74543L27.4759 6.61816H32.3125H40.3906C41.2006 6.61816 41.8594 7.2769 41.8594 8.08691C41.8594 8.89693 41.2006 9.55566 40.3906 9.55566H30.08C30.0102 8.80587 29.6996 8.10674 29.1606 7.56771L28.1214 8.60612C28.4563 8.94099 28.6406 9.38676 28.6406 9.8597V18.3682H13.9531V6.2216L17.1866 3.45007ZM12.4844 5.88379V18.3682H11.0156V8.08691H9.54688V18.3682H8.07812V5.14941H9.54688V6.61816H11.0156V5.14941H11.75C12.1546 5.14941 12.4844 5.47841 12.4844 5.88379ZM2.20312 21.3057V5.14941H6.60938V18.3682H3.67188V21.3057H2.20312ZM5.14062 37.4619V19.8369H29.375H40.3906V29.1635C39.4705 28.8367 38.4842 28.6494 37.4531 28.6494C32.5938 28.6494 28.6406 32.6026 28.6406 37.4619H5.14062ZM37.4531 44.8057C33.4038 44.8057 30.1094 41.5113 30.1094 37.4619C30.1094 33.4126 33.4038 30.1182 37.4531 30.1182C41.5025 30.1182 44.7969 33.4126 44.7969 37.4619C44.7969 41.5113 41.5025 44.8057 37.4531 44.8057Z" fill="#D03427"/>
<path d="M16.8906 21.3057H6.60938V30.1182H16.8906V21.3057ZM15.4219 28.6494H8.07812V22.7744H15.4219V28.6494Z" fill="#D03427"/>
<path d="M24.2344 21.3057H18.3594V25.7119H24.2344V21.3057ZM22.7656 24.2432H19.8281V22.7744H22.7656V24.2432Z" fill="#D03427"/>
<path d="M31.5781 21.3057H25.7031V25.7119H31.5781V21.3057ZM30.1094 24.2432H27.1719V22.7744H30.1094V24.2432Z" fill="#D03427"/>
<path d="M38.9219 21.3057H33.0469V25.7119H38.9219V21.3057ZM37.4531 24.2432H34.5156V22.7744H37.4531V24.2432Z" fill="#D03427"/>
<path d="M6.60938 31.5869H8.07812V33.0557H6.60938V31.5869Z" fill="#D03427"/>
<path d="M9.54688 31.5869H27.1719V33.0557H9.54688V31.5869Z" fill="#D03427"/>
<path d="M6.60938 34.5244H27.1719V35.9932H6.60938V34.5244Z" fill="#D03427"/>
<path d="M18.3594 27.1807H19.8281V28.6494H18.3594V27.1807Z" fill="#D03427"/>
<path d="M21.2969 27.1807H31.5781V28.6494H21.2969V27.1807Z" fill="#D03427"/>
</g>
<defs>
<clipPath id="clip0_206_2067">
<rect width="47" height="47" fill="white" transform="translate(0 0.00878906)"/>
</clipPath>
</defs>
</svg>
