<svg width="47" height="48" viewBox="0 0 47 48" fill="none" xmlns="http://www.w3.org/2000/svg">
<g clip-path="url(#clip0_206_2057)">
<path d="M45.3793 9.733H42.1379V5.68128C42.1379 4.33875 41.0494 3.25024 39.7069 3.25024H38.0862C36.7437 3.25024 35.6552 4.33875 35.6552 5.68128V9.733H32.4138V8.11231C32.4138 7.21729 31.6881 6.49162 30.7931 6.49162H11.3448C10.4498 6.49162 9.72414 7.21729 9.72414 8.11231V9.733H6.48276V6.49162C6.48276 5.5966 5.75709 4.87093 4.86207 4.87093H3.24138C1.45134 4.87093 0 6.32227 0 8.11231V34.0513V34.0888C0.140069 35.8635 1.60091 37.2444 3.38066 37.2847H10.8415C11.071 37.7841 11.3397 38.2648 11.6447 38.7222C13.7446 41.873 17.28 43.7659 21.0662 43.7675C24.8524 43.7691 28.3894 41.8785 30.4916 38.7297C30.7994 38.27 31.0701 37.7868 31.3019 37.2847H45.3793C46.2743 37.2847 47 36.5591 47 35.664V11.3537C47 10.4587 46.2743 9.733 45.3793 9.733ZM38.8966 22.8607L40.2814 23.7835L38.8966 26.5575L37.5109 23.7858L38.8966 22.8607ZM40.5172 10.5354V21.9934L39.348 21.2139C39.0758 21.0323 38.7209 21.0323 38.4482 21.2139L37.2759 21.9942V9.733H40.5172V10.5354ZM38.0862 4.87093H39.7069C40.1544 4.87093 40.5172 5.23377 40.5172 5.68128V8.11231H37.2759V5.68128C37.2759 5.23377 37.6387 4.87093 38.0862 4.87093ZM11.3448 8.11231H30.7931V14.5951H29.1724V12.164C29.1724 11.7165 28.8096 11.3537 28.3621 11.3537C27.9146 11.3537 27.5517 11.7165 27.5517 12.164V14.5951H24.3103V12.164C24.3103 11.7165 23.9475 11.3537 23.5 11.3537C23.0525 11.3537 22.6897 11.7165 22.6897 12.164V14.5951H19.4483V12.164C19.4483 11.7165 19.0854 11.3537 18.6379 11.3537C18.1904 11.3537 17.8276 11.7165 17.8276 12.164V14.5951H14.5862V12.164C14.5862 11.7165 14.2234 11.3537 13.7759 11.3537C13.3284 11.3537 12.9655 11.7165 12.9655 12.164V14.5951H11.3448V8.11231ZM3.24138 6.49162H4.86207V30.802H3.24138C3.05304 30.8043 2.86549 30.8233 2.68071 30.8578C2.59959 30.8708 2.51848 30.887 2.43737 30.9064C2.38316 30.9203 2.33053 30.9381 2.27553 30.9551C2.04842 31.0212 1.82882 31.111 1.62069 31.2234V8.11231C1.62069 7.21729 2.34636 6.49162 3.24138 6.49162ZM3.37749 35.664C2.46625 35.6312 1.71803 34.9332 1.62227 34.0263C1.63177 33.1384 2.35348 32.4234 3.24138 32.4227H4.86207C5.75709 32.4227 6.48276 31.697 6.48276 30.802V11.3537H9.72414V14.5951C9.72414 15.4901 10.4498 16.2158 11.3448 16.2158H30.7931C31.6881 16.2158 32.4138 15.4901 32.4138 14.5951V11.3537H35.6552V23.5089C35.6548 23.5144 35.6548 23.5195 35.6552 23.5251C35.6552 23.535 35.6552 23.5445 35.6591 23.5544C35.6611 23.5813 35.6647 23.6086 35.6698 23.6351C35.6801 23.7008 35.6987 23.7649 35.7248 23.8258C35.7248 23.8313 35.7248 23.8369 35.7296 23.842C35.7347 23.8468 35.7296 23.863 35.7363 23.8721L37.5869 27.5606H31.3051C29.0359 22.7646 23.7437 20.1848 18.5679 21.3508C13.3921 22.5169 9.71741 27.117 9.72414 32.4227C9.73324 33.5199 9.89349 34.6103 10.1997 35.664H3.37749ZM21.069 42.1468C15.6985 42.1468 11.3448 37.7932 11.3448 32.4227C11.3448 27.0521 15.6985 22.6985 21.069 22.6985C26.4395 22.6985 30.7931 27.0521 30.7931 32.4227C30.7947 33.709 30.5371 34.9823 30.0354 36.1665C29.7972 36.7486 29.4985 37.3041 29.1439 37.8236C27.3468 40.5269 24.3151 42.15 21.069 42.1468ZM45.3793 35.664H31.9398C32.1685 34.8703 32.318 34.056 32.3861 33.233H36.4655C36.913 33.233 37.2759 32.8702 37.2759 32.4227C37.2759 31.9751 36.913 31.6123 36.4655 31.6123H32.3742C32.318 30.7885 32.1716 29.973 31.9374 29.1813H38.8966C38.9927 29.1793 39.0877 29.1603 39.1771 29.1247C39.202 29.1156 39.2246 29.1041 39.2491 29.093C39.3164 29.0598 39.3785 29.0179 39.4347 28.968C39.4485 28.9553 39.4647 28.9455 39.4774 28.9316C39.5356 28.8734 39.5838 28.8066 39.621 28.733L42.0521 23.8709C42.0576 23.8559 42.062 23.8404 42.0659 23.825C42.092 23.7641 42.1106 23.7 42.1209 23.6343C42.1249 23.607 42.13 23.5809 42.1316 23.5536C42.1332 23.5259 42.1379 23.5243 42.1379 23.5089V11.3537H45.3793V35.664Z" fill="#D03427"/>
<path d="M21.069 24.3191C16.5935 24.3191 12.9656 27.947 12.9656 32.4225C12.9656 36.898 16.5935 40.526 21.069 40.526C25.5445 40.526 29.1725 36.898 29.1725 32.4225C29.1677 27.949 25.5425 24.3238 21.069 24.3191ZM26.4569 36.0236C24.6705 38.694 21.1972 39.6527 18.2938 38.2774C15.3903 36.902 13.9322 33.6072 14.8664 30.5332C15.801 27.4592 18.8461 25.5334 22.0242 26.0067C25.2019 26.4799 27.5538 29.2096 27.5518 32.4225C27.5526 33.7049 27.1719 34.958 26.4585 36.0236H26.4569Z" fill="#D03427"/>
<path d="M21.069 26.7502C20.6215 26.7502 20.2587 27.1131 20.2587 27.5606V32.0871L18.0706 34.2808C17.8601 34.4841 17.7754 34.7856 17.8498 35.0689C17.9238 35.3522 18.1453 35.5734 18.4286 35.6474C18.712 35.7218 19.0131 35.6371 19.2164 35.4266L21.6475 32.9956C21.7974 32.8429 21.8809 32.6367 21.8793 32.4227V27.5606C21.8793 27.1131 21.5165 26.7502 21.069 26.7502Z" fill="#D03427"/>
<path d="M41.3275 31.6123H39.7068C39.2593 31.6123 38.8965 31.9751 38.8965 32.4226C38.8965 32.8702 39.2593 33.233 39.7068 33.233H41.3275C41.775 33.233 42.1379 32.8702 42.1379 32.4226C42.1379 31.9751 41.775 31.6123 41.3275 31.6123Z" fill="#D03427"/>
</g>
<defs>
<clipPath id="clip0_206_2057">
<rect width="47" height="47" fill="white" transform="translate(0 0.00878906)"/>
</clipPath>
</defs>
</svg>
