<svg width="46" height="48" viewBox="0 0 46 48" fill="none" xmlns="http://www.w3.org/2000/svg">
<path d="M22.8087 1.96704C18.6735 1.96704 14.6311 3.23044 11.1928 5.59747C7.7545 7.9645 5.07466 11.3288 3.49218 15.2651C1.90969 19.2013 1.49564 23.5326 2.30239 27.7113C3.10913 31.89 5.10043 35.7283 8.02448 38.741C10.9485 41.7536 14.674 43.8053 18.7298 44.6365C22.7855 45.4677 26.9895 45.0411 30.8099 43.4106C34.6304 41.7802 37.8958 39.0191 40.1932 35.4766C42.4906 31.9341 43.7168 27.7693 43.7168 23.5087C43.7168 17.7955 41.514 12.3163 37.593 8.27645C33.672 4.2366 28.3539 1.96704 22.8087 1.96704ZM22.8087 43.0921C19.0494 43.0921 15.3746 41.9435 12.2488 39.7917C9.12307 37.6398 6.68685 34.5813 5.24823 31.0029C3.80961 27.4245 3.4332 23.487 4.1666 19.6882C4.9 15.8894 6.71028 12.4 9.3685 9.6612C12.0267 6.92242 15.4135 5.05729 19.1006 4.30166C22.7876 3.54604 26.6094 3.93385 30.0825 5.41607C33.5557 6.89828 36.5242 9.40833 38.6128 12.6288C40.7013 15.8493 41.8161 19.6355 41.8161 23.5087C41.8161 28.7025 39.8135 33.6836 36.249 37.3562C32.6844 41.0288 27.8498 43.0921 22.8087 43.0921Z" fill="#D03427"/>
<path d="M34.8879 12.6106L12.2312 35.9539C12.1359 36.0522 12.0621 36.1703 12.0146 36.3003C11.9671 36.4303 11.947 36.5692 11.9555 36.7078C11.9642 36.8473 12.0018 36.9833 12.0657 37.1066C12.1297 37.2299 12.2185 37.3377 12.3262 37.4226C15.618 40.0074 19.7076 41.275 23.8372 40.9904C27.9668 40.7058 31.8562 38.8883 34.7845 35.8748C37.7128 32.8614 39.4814 28.8563 39.7626 24.6019C40.0437 20.3476 38.8183 16.1324 36.3135 12.7379C36.2334 12.6252 36.1309 12.5315 36.0128 12.463C35.8947 12.3945 35.7638 12.3529 35.6287 12.3408C35.4937 12.3288 35.3578 12.3466 35.23 12.3931C35.1022 12.4396 34.9856 12.5138 34.8879 12.6106ZM22.6947 27.9443L23.7591 26.8476V32.096L21.0696 29.6285L22.6947 27.9443ZM38.0146 23.5087C38.1762 35.8364 24.2058 43.5326 14.3695 36.5316L19.7201 31.0091L24.0727 35.0139C24.2107 35.1397 24.3811 35.2215 24.5634 35.2493C24.7456 35.2771 24.9317 35.2497 25.0991 35.1706C25.2659 35.0933 25.4075 34.9682 25.5069 34.8102C25.6064 34.6521 25.6595 34.4679 25.6599 34.2795V24.8893L28.1688 22.3141C28.3356 23.2744 28.3014 24.2603 28.0687 25.2059C27.836 26.1515 27.41 27.035 26.8193 27.7974C26.729 27.896 26.6595 28.0129 26.6153 28.1406C26.5711 28.2683 26.5531 28.4041 26.5625 28.5393C26.5718 28.6746 26.6084 28.8063 26.6698 28.9263C26.7311 29.0462 26.816 29.1517 26.919 29.2361C27.0221 29.3204 27.141 29.3818 27.2682 29.4164C27.3955 29.451 27.5283 29.4579 27.6583 29.4368C27.7883 29.4157 27.9126 29.367 28.0234 29.2938C28.1342 29.2206 28.229 29.1245 28.3019 29.0116C29.1956 27.8633 29.7939 26.5014 30.0414 25.0518C30.2889 23.6022 30.1777 22.1116 29.7179 20.7181L31.8753 18.4856C32.7627 20.4574 33.113 22.6407 32.8887 24.8019C32.6644 26.963 31.8739 29.0207 30.6018 30.7545C30.5269 30.8574 30.4724 30.9744 30.4414 31.099C30.4105 31.2236 30.4036 31.3532 30.4212 31.4805C30.4389 31.6078 30.4807 31.7303 30.5443 31.8409C30.6079 31.9515 30.692 32.0482 30.7918 32.1254C30.8917 32.2025 31.0053 32.2586 31.1262 32.2905C31.2471 32.3225 31.3729 32.3295 31.4965 32.3113C31.62 32.2932 31.7389 32.2501 31.8463 32.1846C31.9537 32.1191 32.0475 32.0324 32.1224 31.9295C33.667 29.8137 34.5947 27.2883 34.7966 24.649C34.9986 22.0096 34.4666 19.3657 33.2628 17.0266L35.4106 14.8137C37.1029 17.3786 38.0099 20.4073 38.0146 23.5087Z" fill="#D03427"/>
<path d="M33.3864 11.0634C33.4816 10.9651 33.5554 10.847 33.6029 10.717C33.6504 10.587 33.6706 10.4481 33.662 10.3095C33.6499 10.1676 33.6079 10.0301 33.539 9.90669C33.4701 9.78324 33.3758 9.67676 33.2628 9.5947C30.2782 7.18949 26.5979 5.88305 22.8088 5.88366C8.74333 5.76616 0.560664 22.9505 9.30405 34.2795C9.38629 34.3901 9.49049 34.4814 9.60969 34.5472C9.7289 34.613 9.86036 34.6518 9.9953 34.6611C10.1302 34.6703 10.2655 34.6498 10.3922 34.6009C10.5188 34.552 10.6338 34.4758 10.7296 34.3774L33.3864 11.0634ZM16.1562 25.467H13.3051V21.5503H16.1562C16.3872 21.55 16.6102 21.463 16.7834 21.3055L23.7591 14.9214V18.2114L16.6029 25.5845C16.4656 25.5082 16.3122 25.4678 16.1562 25.467ZM10.1689 32.2037C1.12138 17.8882 17.3632 1.17386 31.248 10.4857L25.6599 16.253V12.7378C25.6597 12.5497 25.6068 12.3655 25.5076 12.2075C25.4085 12.0495 25.2673 11.9242 25.1008 11.8467C24.9344 11.7693 24.7498 11.7428 24.5692 11.7706C24.3885 11.7984 24.2195 11.8793 24.0823 12.0034L15.7951 19.592H12.3547C12.1027 19.592 11.8609 19.6952 11.6827 19.8788C11.5045 20.0624 11.4044 20.3115 11.4044 20.5712V26.4462C11.4044 26.7059 11.5045 26.9549 11.6827 27.1385C11.8609 27.3222 12.1027 27.4253 12.3547 27.4253H14.8162L10.1689 32.2037Z" fill="#D03427"/>
</svg>
