<svg width="74" height="76" viewBox="0 0 74 76" fill="none" xmlns="http://www.w3.org/2000/svg">
<path d="M27.4326 59.3901H32.9341C33.5328 59.3901 34.018 58.8984 34.018 58.2915C34.018 57.6846 33.5328 57.1929 32.9341 57.1929H27.4326C26.8338 57.1929 26.3486 57.6846 26.3486 58.2915C26.3486 58.8984 26.8338 59.3901 27.4326 59.3901Z" fill="#05486A"/>
<path d="M27.4326 64.3225H37.8295C38.4283 64.3225 38.9135 63.8308 38.9135 63.2239C38.9135 62.617 38.4283 62.1252 37.8295 62.1252H27.4326C26.8338 62.1252 26.3486 62.617 26.3486 63.2239C26.3486 63.8308 26.8338 64.3225 27.4326 64.3225Z" fill="#05486A"/>
<path d="M17.7036 57.1929C17.1048 57.1929 16.6196 57.6846 16.6196 58.2915V63.2239C16.6196 63.8308 17.1048 64.3226 17.7036 64.3226H22.5787C23.1774 64.3226 23.6626 63.8308 23.6626 63.2239V58.2915C23.6626 57.6846 23.1774 57.1929 22.5787 57.1929H17.7036ZM21.4948 62.1253H18.7877V59.3901H21.4948V62.1253Z" fill="#05486A"/>
<path d="M7.95312 57.1929C7.35433 57.1929 6.86914 57.6846 6.86914 58.2915V63.2239C6.86914 63.8308 7.35433 64.3226 7.95312 64.3226H12.8282C13.427 64.3226 13.9121 63.8308 13.9121 63.2239V58.2915C13.9121 57.6846 13.427 57.1929 12.8282 57.1929H7.95312ZM11.7443 62.1253H9.03725V59.3901H11.7443V62.1253Z" fill="#05486A"/>
<path d="M55.0161 60.8376C54.4173 60.8376 53.9321 61.3294 53.9321 61.9363C53.9321 62.5432 54.4173 63.0349 55.0161 63.0349H62.5989C63.1977 63.0349 63.6829 62.5432 63.6829 61.9363C63.6829 61.3294 63.1977 60.8376 62.5989 60.8376H55.0161Z" fill="#05486A"/>
<path d="M72.916 29.7124C73.5148 29.7124 74 29.2206 74 28.6137V12.7383C74 12.1314 73.5148 11.6397 72.916 11.6397H45.7829V6.3916C45.7829 5.78472 45.2977 5.29297 44.6989 5.29297H25.5606C24.9618 5.29297 24.4767 5.78472 24.4767 6.3916V9.57954C24.4767 10.1864 24.9618 10.6782 25.5606 10.6782C26.1594 10.6782 26.6446 10.1864 26.6446 9.57954V7.49023H31.0041V15.3437C31.0041 15.7218 31.1959 16.0732 31.512 16.2743C31.8282 16.4753 32.2238 16.4976 32.5597 16.3329L35.1298 15.0746L37.7001 16.3329C37.8494 16.4062 38.0106 16.4423 38.1716 16.4423C38.3723 16.4423 38.5722 16.3858 38.7477 16.2743C39.0638 16.0733 39.2556 15.7219 39.2556 15.3437V7.49023H43.6149V24.6878H26.6446V14.59C26.6446 13.9832 26.1594 13.4914 25.5606 13.4914C24.9618 13.4914 24.4767 13.9832 24.4767 14.59V24.6878H1.08398C0.485191 24.6878 0 25.1795 0 25.7864V69.9919C0 70.5988 0.485191 71.0905 1.08398 71.0905H72.916C73.5148 71.0905 74 70.5988 74 69.9919V62.9747C74 62.3678 73.5148 61.8761 72.916 61.8761C72.3172 61.8761 71.832 62.3678 71.832 62.9747V68.8933H45.7829V42.4638H53.2388V54.5785C53.2388 54.9567 53.4307 55.3082 53.7468 55.5093C54.0631 55.7104 54.4591 55.7321 54.7947 55.5676L58.8076 53.6009L62.8205 55.5676C62.97 55.6408 63.1313 55.6771 63.2924 55.6771C63.493 55.6771 63.6929 55.6208 63.8684 55.5093C64.1844 55.3083 64.3764 54.9569 64.3764 54.5785V42.4638H71.832V57.2406C71.832 57.8475 72.3172 58.3392 72.916 58.3392C73.5148 58.3392 74 57.8475 74 57.2406V34.348C74 33.7411 73.5148 33.2494 72.916 33.2494C72.3172 33.2494 71.832 33.7411 71.832 34.348V40.2666H45.7829V37.923C45.7829 37.3161 45.2977 36.8243 44.6989 36.8243C44.1001 36.8243 43.6149 37.3161 43.6149 37.923V68.8934H2.16797V26.8851H14.8756V46.1904C14.8756 46.5685 15.0674 46.92 15.3835 47.121C15.6996 47.3221 16.0953 47.3441 16.4312 47.1796L22.8914 44.0164L29.3517 47.1796C29.5011 47.2528 29.6623 47.289 29.8233 47.289C30.0241 47.289 30.2239 47.2325 30.3994 47.121C30.7155 46.9202 30.9073 46.5686 30.9073 46.1904V26.8851H43.6149V32.5134C43.6149 33.1203 44.1001 33.6121 44.6989 33.6121C45.2977 33.6121 45.7829 33.1203 45.7829 32.5134V13.837H53.2388V25.9517C53.2388 26.3299 53.4307 26.6813 53.7468 26.8824C54.0631 27.0834 54.4591 27.1051 54.7947 26.9407L58.8076 24.974L62.8205 26.9407C62.97 27.014 63.1313 27.0503 63.2924 27.0503C63.493 27.0503 63.6929 26.9939 63.8684 26.8824C64.1844 26.6814 64.3764 26.33 64.3764 25.9517V13.837H71.832V28.6137C71.832 29.2205 72.3172 29.7124 72.916 29.7124ZM37.0874 13.5929L35.6011 12.8653C35.4522 12.7924 35.2909 12.7559 35.1296 12.7559C34.9683 12.7559 34.8072 12.7924 34.658 12.8653L33.1719 13.5929V7.49023H37.0874V13.5929ZM62.2081 42.4638V52.8269L59.2792 51.3915C59.1302 51.3184 58.9689 51.2819 58.8073 51.2819C58.6457 51.2819 58.4846 51.3184 58.3354 51.3915L55.4065 52.8269V42.4638H62.2081ZM28.7393 44.4396L23.363 41.8071C23.2142 41.7342 23.0529 41.6977 22.8914 41.6977C22.73 41.6977 22.5688 41.7342 22.4198 41.8071L17.0436 44.4396V26.8851H28.7393V44.4396ZM62.2081 24.2L59.2792 22.7646C59.1302 22.6915 58.9689 22.655 58.8073 22.655C58.6457 22.655 58.4846 22.6915 58.3354 22.7646L55.4065 24.2V13.837H62.208V24.2H62.2081Z" fill="#05486A"/>
<path d="M55.0161 32.2108C54.4173 32.2108 53.9321 32.7026 53.9321 33.3094C53.9321 33.9163 54.4173 34.4081 55.0161 34.4081H62.5989C63.1977 34.4081 63.6829 33.9163 63.6829 33.3094C63.6829 32.7026 63.1977 32.2108 62.5989 32.2108H55.0161Z" fill="#05486A"/>
<path d="M37.7014 21.4274C38.3002 21.4274 38.7854 20.9356 38.7854 20.3287C38.7854 19.7218 38.3002 19.2301 37.7014 19.2301H32.5586C31.9598 19.2301 31.4746 19.7218 31.4746 20.3287C31.4746 20.9356 31.9598 21.4274 32.5586 21.4274H37.7014Z" fill="#05486A"/>
</svg>
