<svg width="75" height="76" viewBox="0 0 75 76" fill="none" xmlns="http://www.w3.org/2000/svg">
<g clip-path="url(#clip0_206_1127)">
<path d="M72.7295 68.641H72.5733V63.6312C72.5733 62.3792 71.5548 61.3607 70.3028 61.3607H70.1467V47.8157C70.1467 45.9176 68.6024 44.3733 66.7043 44.3733H66.5547C68.2478 38.716 68.0884 32.6051 66.0735 26.9988C63.8563 20.8298 59.5043 15.6246 53.8189 12.342C48.3356 9.17651 41.8777 7.97153 35.6347 8.95049C35.0353 9.04453 34.6255 9.60659 34.7194 10.2059C34.8135 10.8053 35.375 11.2151 35.975 11.1211C41.7233 10.2202 47.6703 11.3292 52.7203 14.2449C63.2594 20.3298 68.0272 32.9004 64.2527 44.3733H61.6846C61.6012 44.3733 61.5189 44.3773 61.437 44.3832C63.0889 39.9538 63.3284 35.1327 62.0801 30.4743C60.4942 24.5558 56.6985 19.609 51.392 16.5453C46.0856 13.4817 39.9037 12.6678 33.9851 14.2535C28.4216 15.7443 23.7174 19.188 20.6282 24.0034L18.3253 22.6739C21.4811 17.7107 26.2425 13.9853 31.8412 12.1247C32.417 11.9332 32.7286 11.3114 32.5373 10.7357C32.3459 10.16 31.7241 9.84785 31.1483 10.0396C30.0211 10.4142 28.926 10.8599 27.8666 11.3694L21.4815 7.68296C20.3774 7.04516 18.9606 7.42529 18.3233 8.5292L18.2656 8.62925L5.03525 1.00166C3.9312 0.364306 2.5144 0.743847 1.87705 1.84775L0.663721 3.94951C0.354932 4.48418 0.2729 5.10732 0.432715 5.70395C0.592529 6.30058 0.975147 6.79922 1.51055 7.10815L14.7401 14.7354L14.6832 14.8342C14.0458 15.9384 14.4255 17.3552 15.5295 17.9925L17.9506 19.3904C17.4083 20.0911 16.8986 20.8204 16.4222 21.5752L16.3028 21.5064C15.1989 20.8689 13.7821 21.2486 13.1446 22.3526L11.9312 24.4542C11.6225 24.9891 11.5405 25.6121 11.7001 26.2087C11.86 26.8052 12.2426 27.304 12.7774 27.6126L17.1034 30.1102C11.5312 40.9119 15.3905 54.3409 26.0257 60.4811C26.5775 60.7997 27.1399 61.091 27.7094 61.3608H13.8721C13.2653 61.3608 12.7734 61.8526 12.7734 62.4595C12.7734 63.0664 13.2653 63.5581 13.8721 63.5581H70.3027C70.343 63.5581 70.3759 63.5911 70.3759 63.6313V68.6411H4.62407V63.6313C4.62407 63.5911 4.65689 63.5581 4.69731 63.5581H9.47768C10.0844 63.5581 10.5763 63.0664 10.5763 62.4595C10.5763 61.8526 10.0844 61.3608 9.47768 61.3608H4.69731C3.44531 61.3608 2.42681 62.3793 2.42681 63.6313V68.6411H2.27051C1.01851 68.6411 0 69.6596 0 70.9116V73.4213C0 74.6733 1.01851 75.6918 2.27051 75.6918H72.7295C73.9815 75.6918 75 74.6733 75 73.4213V70.9116C75 69.6595 73.9815 68.641 72.7295 68.641ZM4.81025 6.47432L2.60845 5.20488C2.5812 5.18921 2.56318 5.16577 2.55513 5.13516C2.54692 5.10469 2.55073 5.07539 2.56655 5.048L3.77988 2.94624C3.80098 2.90962 3.8395 2.88896 3.87935 2.88896C3.89897 2.88896 3.91904 2.89394 3.93735 2.90449L6.13857 4.17363L4.81025 6.47432ZM6.71382 7.57178L8.04199 5.27124L17.1668 10.5321L15.8386 12.8325L6.71382 7.57178ZM16.6279 16.0895C16.5731 16.0579 16.5543 15.9876 16.5858 15.9328L20.226 9.62798C20.2575 9.57305 20.3278 9.554 20.3827 9.58594L25.5945 12.595C23.2898 13.9806 21.1995 15.6942 19.3871 17.6829L16.6279 16.0895ZM27.1244 58.5779C17.5386 53.0436 14.0402 40.9605 19.0081 31.2097L29.7532 37.4134C29.0479 39.1096 28.9187 40.9796 29.4019 42.7835C29.9812 44.9454 31.3676 46.7522 33.3059 47.8711C34.597 48.6165 36.0297 48.9974 37.4817 48.9974C38.2094 48.9974 38.9421 48.9018 39.6639 48.7082C41.4677 48.2248 43.0226 47.1779 44.1388 45.7191L50.673 49.4916C48.5647 52.6299 45.4384 54.8946 41.7643 55.9192C41.1798 56.0823 40.8382 56.6881 41.0011 57.2726C41.1366 57.7583 41.578 58.0764 42.0589 58.0764C42.1566 58.0764 42.2559 58.0632 42.3546 58.0358C46.5863 56.8556 50.179 54.2303 52.5794 50.5922L54.884 51.9228C48.9236 61.1004 36.7102 64.1123 27.1244 58.5779ZM31.6781 38.5247L42.2143 44.6079C41.4073 45.5656 40.3305 46.2549 39.0955 46.5858C37.5007 47.0134 35.8348 46.7938 34.4048 45.9683C32.9748 45.1427 31.9519 43.8097 31.5246 42.2147C31.1936 40.9796 31.2521 39.7022 31.6781 38.5247ZM58.2422 61.3605H47.2961C51.1705 59.5403 54.4455 56.677 56.7898 53.0228L58.2422 53.8614V61.3605ZM58.2422 51.3243L13.876 25.7095C13.8212 25.6778 13.8025 25.6075 13.8341 25.5527L15.0475 23.4511C15.0791 23.3963 15.1493 23.3773 15.2042 23.4091L58.2422 48.2571V51.3243ZM22.533 25.1032C25.3269 20.7957 29.5575 17.7148 34.5538 16.3761C39.9057 14.942 45.4954 15.6778 50.2934 18.4482C55.0916 21.2184 58.5239 25.6913 59.9578 31.043C61.2965 36.0393 60.7437 41.2434 58.4104 45.8169L22.533 25.1032ZM67.9493 61.3605H60.4395V58.7042H67.9494V61.3605H67.9493ZM67.9493 56.5071H60.4395V47.8157C60.4395 47.1293 60.998 46.5706 61.6846 46.5706H66.7043C67.3909 46.5706 67.9494 47.1293 67.9494 47.8157V56.5071H67.9493ZM7.28027 73.4943H2.27051C2.23008 73.4943 2.19727 73.4613 2.19727 73.421V70.9113C2.19727 70.871 2.23008 70.8381 2.27051 70.8381H3.52544H7.28027V73.4943ZM65.5225 73.4943H9.47754V70.8381H65.5225V73.4943ZM72.8027 73.421C72.8027 73.4613 72.7698 73.4943 72.7295 73.4943H67.7197V70.8381H71.4747H72.7295C72.7698 70.8381 72.8027 70.871 72.8027 70.9113V73.421Z" fill="#05486A"/>
<path d="M49.7269 26.7925L43.3501 23.1108C42.8248 22.8077 42.2126 22.7271 41.6271 22.8838C41.0414 23.0409 40.5517 23.4168 40.2486 23.9419L38.9937 26.1154C38.3677 27.1996 38.7405 28.5909 39.8248 29.217L46.2016 32.8987C46.5514 33.1007 46.9396 33.2038 47.333 33.2038C47.5303 33.2038 47.729 33.1779 47.9245 33.1255C48.5103 32.9686 48.9999 32.5927 49.3031 32.0675L50.558 29.894C51.1839 28.8099 50.811 27.4184 49.7269 26.7925ZM48.655 28.7954L47.4001 30.9689C47.3964 30.9755 47.3849 30.9953 47.3556 31.003C47.326 31.0104 47.3065 30.9997 47.3 30.9957L40.9233 27.314C40.8883 27.2938 40.8763 27.2489 40.8963 27.2139L42.1514 25.0402C42.1551 25.0338 42.1664 25.014 42.1958 25.0063C42.2251 24.9984 42.2449 25.0096 42.2513 25.0136L48.6281 28.6953C48.6632 28.7155 48.6752 28.7605 48.655 28.7954Z" fill="#05486A"/>
<path d="M64.1943 50.4401C63.5875 50.4401 63.0957 50.9318 63.0957 51.5387V52.752C63.0957 53.3589 63.5875 53.8507 64.1943 53.8507C64.8012 53.8507 65.293 53.3589 65.293 52.752V51.5387C65.293 50.9318 64.8012 50.4401 64.1943 50.4401Z" fill="#05486A"/>
</g>
<defs>
<clipPath id="clip0_206_1127">
<rect width="75" height="75" fill="white" transform="translate(0 0.691772)"/>
</clipPath>
</defs>
</svg>
