<svg width="74" height="76" viewBox="0 0 74 76" fill="none" xmlns="http://www.w3.org/2000/svg">
<path d="M36.0343 73.1992C36.347 73.2973 36.6725 73.3474 36.9998 73.348C37.3192 73.3472 37.6367 73.2986 37.9421 73.2038C42.5906 71.8537 46.9831 69.7238 50.9372 66.9027C51.1722 66.7175 51.3277 66.4477 51.3713 66.1493C51.4149 65.8509 51.3433 65.5469 51.1714 65.3007C50.9995 65.0544 50.7405 64.8848 50.4484 64.8272C50.1562 64.7696 49.8534 64.8284 49.6029 64.9913C45.854 67.6636 41.6897 69.6802 37.2831 70.9574C37.0913 71.0195 36.8852 71.0195 36.6934 70.9574C30.9379 69.3015 25.6152 66.3753 21.1071 62.3886C20.995 62.2767 20.8615 62.1892 20.7149 62.1314C20.5682 62.0736 20.4114 62.0468 20.2542 62.0525C20.0969 62.0583 19.9424 62.0965 19.8003 62.1649C19.6581 62.2332 19.5312 62.3303 19.4273 62.4501C19.3234 62.5699 19.2448 62.71 19.1962 62.8617C19.1476 63.0134 19.13 63.1735 19.1446 63.3323C19.1592 63.4911 19.2057 63.6452 19.2811 63.7852C19.3565 63.9252 19.4593 64.0481 19.5832 64.1464C24.3414 68.3563 29.9592 71.4477 36.0343 73.1992Z" fill="#05486A"/>
<path d="M6.43933 18.3319C6.28877 18.3115 6.13572 18.3213 5.98891 18.3608C5.8421 18.4004 5.70442 18.4688 5.58372 18.5623C5.46303 18.6558 5.3617 18.7725 5.28551 18.9057C5.20932 19.0388 5.15978 19.1859 5.13971 19.3385C4.32455 25.5155 3.3533 41.3557 11.9095 55.0444C11.9908 55.1744 12.0965 55.287 12.2206 55.3756C12.3448 55.4643 12.485 55.5272 12.6331 55.561C12.7813 55.5947 12.9346 55.5985 13.0842 55.5722C13.2338 55.5459 13.3769 55.49 13.5052 55.4077C13.6335 55.3254 13.7445 55.2182 13.832 55.0924C13.9194 54.9666 13.9816 54.8245 14.0149 54.6743C14.0481 54.5242 14.0519 54.3688 14.026 54.2172C14 54.0655 13.9448 53.9205 13.8636 53.7905C5.71205 40.7546 6.64977 25.5718 7.43024 19.6491C7.471 19.3413 7.38954 19.0296 7.20374 18.7827C7.01794 18.5357 6.743 18.3736 6.43933 18.3319Z" fill="#05486A"/>
<path d="M15.0764 57.5825C14.9579 57.679 14.8594 57.7983 14.7864 57.9334C14.7135 58.0685 14.6675 58.2169 14.6512 58.37C14.6349 58.5232 14.6485 58.6781 14.6913 58.8259C14.7341 58.9737 14.8052 59.1115 14.9006 59.2314C15.2475 59.6673 15.6186 60.1032 16.0002 60.5392C16.1009 60.6546 16.2231 60.7488 16.3598 60.8163C16.4964 60.8839 16.6449 60.9235 16.7967 60.9329C16.9484 60.9423 17.1005 60.9214 17.2443 60.8712C17.3881 60.821 17.5207 60.7427 17.6346 60.6406C17.7484 60.5384 17.8414 60.4146 17.908 60.2761C17.9747 60.1376 18.0138 59.9871 18.0231 59.8333C18.0323 59.6795 18.0116 59.5253 17.9621 59.3796C17.9126 59.2339 17.8353 59.0995 17.7346 58.9841C17.3773 58.5751 17.0304 58.1638 16.7067 57.7607C16.6114 57.6401 16.4936 57.5398 16.36 57.4656C16.2263 57.3913 16.0796 57.3446 15.9281 57.328C15.7765 57.3115 15.6233 57.3254 15.4771 57.3691C15.331 57.4128 15.1948 57.4853 15.0764 57.5825Z" fill="#05486A"/>
<path d="M65.8922 15.4794C61.6912 14.7384 57.5753 13.5664 53.6082 11.9814C48.419 9.89978 43.526 7.12782 39.058 3.73843C38.4641 3.28578 37.7412 3.04102 36.9981 3.04102C36.255 3.04102 35.5321 3.28578 34.9382 3.73843C32.7123 5.42614 30.3794 6.96382 27.9545 8.34156C27.8217 8.41668 27.7049 8.51762 27.6106 8.63858C27.5164 8.75955 27.4466 8.89816 27.4053 9.0465C27.364 9.19483 27.352 9.34997 27.3699 9.50302C27.3878 9.65608 27.4354 9.80404 27.5098 9.93844C27.5843 10.0728 27.6841 10.191 27.8037 10.2863C27.9233 10.3815 28.0602 10.4519 28.2067 10.4934C28.3531 10.5349 28.5062 10.5467 28.6572 10.5282C28.8082 10.5096 28.954 10.4611 29.0865 10.3853C31.6015 8.95369 34.0209 7.3561 36.3292 5.60288C36.5212 5.45331 36.7565 5.37222 36.9987 5.37222C37.2408 5.37222 37.4762 5.45331 37.6682 5.60288C42.3019 9.12037 47.3769 11.9972 52.7595 14.1576C56.8763 15.8032 61.1475 17.0204 65.5072 17.7904C65.7444 17.8312 65.9624 17.9482 66.129 18.1242C66.2955 18.3002 66.4018 18.5258 66.4322 18.7677C67.1757 23.7201 68.3076 36.5662 62.7669 48.8427C62.7008 48.983 62.6629 49.1352 62.6555 49.2905C62.648 49.4457 62.6711 49.6009 62.7234 49.7471C62.7756 49.8932 62.8561 50.0273 62.96 50.1416C63.0639 50.2559 63.1893 50.3482 63.3287 50.4129C63.4681 50.4777 63.6189 50.5137 63.7722 50.5188C63.9255 50.5239 64.0782 50.4981 64.2216 50.4428C64.3649 50.3875 64.496 50.3039 64.6071 50.1968C64.7182 50.0897 64.8073 49.9612 64.8689 49.8189C70.6698 36.9669 69.4939 23.5759 68.7192 18.4127C68.6144 17.6837 68.2843 17.0071 67.7764 16.4801C67.2685 15.9531 66.6088 15.6028 65.8922 15.4794Z" fill="#05486A"/>
<path d="M35.8843 64.9419C36.2418 65.0749 36.6194 65.1435 37.0001 65.1447C37.3749 65.1442 37.7466 65.0772 38.0985 64.9466C39.6937 64.3779 41.249 63.7002 42.7536 62.9181C42.8887 62.8476 43.0087 62.7509 43.1069 62.6334C43.205 62.5159 43.2794 62.3799 43.3257 62.2333C43.3721 62.0867 43.3895 61.9322 43.3769 61.7788C43.3643 61.6253 43.3221 61.4759 43.2525 61.339C43.183 61.2021 43.0875 61.0805 42.9716 60.981C42.8556 60.8815 42.7215 60.8061 42.5768 60.7591C42.4322 60.7122 42.2798 60.6946 42.1284 60.7073C41.977 60.72 41.8295 60.7629 41.6945 60.8333C40.2803 61.5703 38.8181 62.2085 37.3181 62.7435C37.1081 62.8267 36.8748 62.8267 36.6648 62.7435C31.4809 60.9436 26.8217 57.862 23.1089 53.7775C14.3815 44.1318 13.6126 31.2177 13.9294 24.4033C13.9403 24.2216 13.9855 24.0438 14.0624 23.8794C14.1744 23.6028 14.1778 23.2932 14.072 23.0141C13.9662 22.735 13.759 22.5075 13.4931 22.3781C13.2271 22.2487 12.9224 22.2273 12.6413 22.3181C12.3602 22.409 12.1241 22.6053 11.9812 22.8669C11.775 23.3083 11.6545 23.7857 11.6262 24.2732C11.2909 31.4767 12.1164 45.0962 21.4092 55.3665C25.3742 59.7279 30.3492 63.0189 35.8843 64.9419Z" fill="#05486A"/>
<path d="M58.245 44.051C58.3719 44.099 58.5062 44.1236 58.6416 44.1237C58.8787 44.1236 59.1099 44.0497 59.3041 43.912C59.4983 43.7743 59.6461 43.5794 59.7274 43.3538C61.8339 37.2286 62.7335 30.7439 62.3752 24.2674C62.3529 23.7938 62.2382 23.3294 62.0378 22.9009C61.8373 22.4725 61.5551 22.0886 61.2074 21.7713C61.0972 21.6558 60.9647 21.5645 60.8183 21.5031C60.6718 21.4417 60.5144 21.4114 60.3559 21.4142C60.1974 21.417 60.0412 21.4529 59.897 21.5194C59.7527 21.586 59.6235 21.682 59.5173 21.8013C59.4112 21.9206 59.3304 22.0608 59.28 22.2131C59.2295 22.3654 59.2105 22.5266 59.2242 22.6867C59.2378 22.8467 59.2837 23.0022 59.3592 23.1435C59.4346 23.2848 59.5379 23.4089 59.6626 23.5081C59.7836 23.6193 59.8816 23.7537 59.9511 23.9036C60.0206 24.0534 60.0601 24.2157 60.0673 24.3811C60.4114 30.5438 59.5594 36.715 57.5594 42.5452C57.5067 42.6897 57.4827 42.8433 57.4887 42.9972C57.4947 43.1511 57.5305 43.3023 57.5942 43.4422C57.6579 43.582 57.7481 43.7078 57.8598 43.8123C57.9715 43.9167 58.1024 43.9979 58.245 44.051Z" fill="#05486A"/>
<path d="M36.5502 13.6785C36.7136 13.6032 36.8931 13.5708 37.0721 13.5843C37.2512 13.5978 37.424 13.6568 37.5746 13.7558C40.9028 15.9331 44.4063 17.8218 48.0479 19.4019C48.3277 19.5127 48.639 19.5089 48.916 19.3912C49.193 19.2735 49.4139 19.0511 49.532 18.7712C49.6501 18.4913 49.6561 18.1758 49.5487 17.8915C49.4414 17.6072 49.229 17.3764 48.9567 17.248C45.4348 15.7183 42.0462 13.8907 38.8268 11.7847C38.3546 11.4767 37.8143 11.2925 37.2544 11.2487C36.6945 11.2049 36.1326 11.3029 35.6194 11.5339C35.3547 11.6685 35.151 11.9008 35.0503 12.183C34.9497 12.4653 34.9596 12.7759 35.0783 13.0509C35.1969 13.3259 35.415 13.5442 35.6878 13.661C35.9606 13.7778 36.2672 13.784 36.5444 13.6785H36.5502Z" fill="#05486A"/>
<path d="M54.9101 21.9906C55.0181 22.0235 55.1303 22.0401 55.2431 22.0398C55.5206 22.0396 55.7889 21.9382 55.9987 21.7541C56.2086 21.5701 56.3462 21.3156 56.3863 21.0373C56.4264 20.7589 56.3664 20.4753 56.2172 20.238C56.0681 20.0008 55.8397 19.8259 55.5738 19.7453C55.0153 19.5753 54.458 19.3831 53.8995 19.1792C53.611 19.0739 53.2929 19.089 53.0154 19.2213C52.7378 19.3536 52.5235 19.5922 52.4195 19.8847C52.3156 20.1772 52.3305 20.4995 52.461 20.7808C52.5916 21.0621 52.827 21.2793 53.1156 21.3847C53.7145 21.6027 54.3123 21.8089 54.9101 21.9906Z" fill="#05486A"/>
<path d="M30.7689 35.2397C30.0816 34.5573 29.1578 34.175 28.1957 34.175C27.2335 34.175 26.3097 34.5573 25.6224 35.2397L24.1748 36.7362C23.5012 37.4404 23.1245 38.3827 23.1245 39.3635C23.1245 40.3444 23.5012 41.2867 24.1748 41.9909L33.034 51.1538C33.3686 51.502 33.7687 51.7787 34.2105 51.9677C34.6524 52.1566 35.1271 52.254 35.6067 52.254C36.0862 52.254 36.5609 52.1566 37.0028 51.9677C37.4447 51.7787 37.8447 51.502 38.1793 51.1538L54.4501 34.3245C55.1237 33.6203 55.5004 32.6779 55.5004 31.6971C55.5004 30.7163 55.1237 29.774 54.4501 29.0698L53.0024 27.5733C52.6686 27.2244 52.2689 26.9471 51.8271 26.7581C51.3853 26.569 50.9105 26.472 50.4309 26.4729C49.951 26.472 49.4759 26.5689 49.0337 26.758C48.5915 26.947 48.1914 27.2243 47.8571 27.5733L36.5259 39.292C36.2808 39.5377 35.9501 39.6754 35.6055 39.6754C35.2609 39.6754 34.9302 39.5377 34.6851 39.292L30.7689 35.2397ZM38.1793 40.9315L49.5106 29.2127C49.6299 29.0874 49.773 28.9877 49.9312 28.9196C50.0895 28.8515 50.2596 28.8164 50.4315 28.8164C50.6034 28.8164 50.7736 28.8515 50.9318 28.9196C51.09 28.9877 51.2331 29.0874 51.3525 29.2127L52.8001 30.7104C53.0533 30.9748 53.1948 31.3287 53.1948 31.6971C53.1948 32.0655 53.0533 32.4195 52.8001 32.6838L36.527 49.5143C36.282 49.7599 35.9513 49.8977 35.6067 49.8977C35.262 49.8977 34.9313 49.7599 34.6863 49.5143L25.8271 40.3502C25.5739 40.0859 25.4323 39.7319 25.4323 39.3635C25.4323 38.9951 25.5739 38.6412 25.8271 38.3768L27.2747 36.8792C27.5201 36.6338 27.8509 36.4962 28.1957 36.4962C28.5404 36.4962 28.8712 36.6338 29.1166 36.8792L33.034 40.9315C33.7212 41.6136 34.6448 41.9956 35.6067 41.9956C36.5685 41.9956 37.4921 41.6136 38.1793 40.9315Z" fill="#05486A"/>
<path d="M10.4062 17.0979C10.4064 17.3718 10.5012 17.637 10.6742 17.8475C10.8472 18.0579 11.0874 18.2003 11.3532 18.2499C18.685 19.6186 19.4817 20.4261 20.8345 27.8593C20.884 28.1281 21.0248 28.3709 21.2323 28.5456C21.4399 28.7203 21.7012 28.816 21.9711 28.816C22.2409 28.816 22.5022 28.7203 22.7098 28.5456C22.9174 28.3709 23.0581 28.1281 23.1077 27.8593C24.4582 20.4284 25.2548 19.621 32.5889 18.2499C32.8541 18.1997 33.0937 18.057 33.2661 17.8466C33.4385 17.6363 33.5329 17.3714 33.5329 17.0979C33.5329 16.8244 33.4385 16.5596 33.2661 16.3492C33.0937 16.1388 32.8541 15.9962 32.5889 15.946C25.2571 14.5772 24.4605 13.7698 23.1077 6.33659C23.0581 6.06777 22.9174 5.82497 22.7098 5.65025C22.5022 5.47553 22.2409 5.37988 21.9711 5.37988C21.7012 5.37988 21.4399 5.47553 21.2323 5.65025C21.0248 5.82497 20.884 6.06777 20.8345 6.33659C19.484 13.7675 18.6873 14.5749 11.3532 15.946C11.0874 15.9955 10.8472 16.1379 10.6742 16.3484C10.5012 16.5588 10.4064 16.824 10.4062 17.0979ZM21.9688 11.5796C22.3121 12.906 22.9973 14.1161 23.9541 15.0858C24.9108 16.0555 26.1048 16.7499 27.4135 17.0979C26.1048 17.4459 24.9108 18.1404 23.9541 19.1101C22.9973 20.0798 22.3121 21.2898 21.9688 22.6163C21.6254 21.2898 20.9402 20.0798 19.9834 19.1101C19.0267 18.1404 17.8327 17.4459 16.524 17.0979C17.8327 16.7499 19.0267 16.0555 19.9834 15.0858C20.9402 14.1161 21.6254 12.906 21.9688 11.5796Z" fill="#05486A"/>
<path d="M68.4282 58.1335C61.0964 56.7647 60.2997 55.9573 58.9469 48.5241C58.8974 48.2553 58.7566 48.0125 58.5491 47.8377C58.3415 47.663 58.0802 47.5674 57.8103 47.5674C57.5405 47.5674 57.2792 47.663 57.0716 47.8377C56.864 48.0125 56.7233 48.2553 56.6737 48.5241C55.3232 55.955 54.5266 56.7624 47.1925 58.1335C46.9273 58.1837 46.6877 58.3263 46.5153 58.5367C46.3429 58.7471 46.2485 59.0119 46.2485 59.2854C46.2485 59.5589 46.3429 59.8238 46.5153 60.0341C46.6877 60.2445 46.9273 60.3872 47.1925 60.4374C54.5243 61.8061 55.3209 62.6135 56.6737 70.0467C56.7233 70.3156 56.864 70.5584 57.0716 70.7331C57.2792 70.9078 57.5405 71.0035 57.8103 71.0035C58.0802 71.0035 58.3415 70.9078 58.5491 70.7331C58.7566 70.5584 58.8974 70.3156 58.9469 70.0467C60.2974 62.6159 61.0941 61.8085 68.4282 60.4374C68.6934 60.3872 68.933 60.2445 69.1054 60.0341C69.2778 59.8238 69.3721 59.5589 69.3721 59.2854C69.3721 59.0119 69.2778 58.7471 69.1054 58.5367C68.933 58.3263 68.6934 58.1837 68.4282 58.1335ZM57.8126 64.8038C57.4693 63.4773 56.7841 62.2673 55.8273 61.2976C54.8706 60.3279 53.6766 59.6334 52.3679 59.2854C53.6766 58.9374 54.8706 58.243 55.8273 57.2733C56.7841 56.3036 57.4693 55.0935 57.8126 53.7671C58.156 55.0935 58.8412 56.3036 59.798 57.2733C60.7547 58.243 61.9487 58.9374 63.2574 59.2854C61.9487 59.6334 60.7547 60.3279 59.798 61.2976C58.8412 62.2673 58.156 63.4773 57.8126 64.8038Z" fill="#05486A"/>
</svg>
