<svg width="75" height="76" viewBox="0 0 75 76" fill="none" xmlns="http://www.w3.org/2000/svg">
<path d="M11.721 3.0354C7.16659 3.0354 3.51105 6.83263 3.51105 11.4445C3.51105 14.4132 5.38462 17.8074 7.18687 20.3823C4.02053 25.7751 2.34375 31.9282 2.34375 38.1917C2.34375 57.594 18.0976 73.3479 37.5 73.3479C56.9024 73.3479 72.6563 57.594 72.6563 38.1917C72.6563 34.8888 72.1765 31.5529 71.2601 28.3817C72.1207 25.9604 72.6471 23.5876 72.6471 21.2452C72.6471 11.2053 64.4932 3.0354 54.4647 3.0354C51.9576 3.0354 49.5808 3.53855 47.406 4.46132C44.1928 3.51875 40.8504 3.0354 37.5 3.0354C31.0558 3.0354 24.7572 4.79983 19.2673 8.13258C17.9854 5.11328 15.1127 3.0354 11.721 3.0354ZM44.3619 6.1047C39.4911 9.3715 36.2801 14.9483 36.2801 21.2452C36.2801 27.9024 40.6994 35.6002 45.0096 41.5745C49.3199 47.5489 53.6339 51.92 53.6339 51.92C54.0931 52.3867 54.8455 52.3867 55.3047 51.92C55.3047 51.92 59.6096 47.5489 63.9198 41.5745C66.0003 38.6908 68.1048 35.3882 69.7266 32.0324C70.1181 34.0989 70.3125 36.1378 70.3125 38.1917C70.3125 43.694 68.9499 48.8737 66.5611 53.426H58.2619C55.8646 53.426 53.936 55.3581 53.936 57.7244C53.936 58.7822 53.0865 59.6814 51.9653 59.6814H49.4385C47.0687 59.6814 45.1126 61.586 45.1126 63.9797C45.1126 66.3735 47.0687 68.2781 49.4385 68.2781H50.5943C46.5797 70.0276 42.1624 71.0041 37.5 71.0041C35.5381 71.0041 33.6195 70.823 31.7528 70.4937C31.8691 69.4555 32.6781 68.6947 33.6685 68.6947H36.1588C38.5358 68.6947 40.4411 66.7324 40.4411 64.291C40.4411 61.8497 38.5358 59.8874 36.1588 59.8874H26.255C25.1837 59.8874 24.3164 58.9746 24.3164 57.8297C24.3164 55.4341 22.4316 53.426 20.0272 53.426H8.4343C7.83508 52.284 7.30039 51.104 6.83671 49.8875H12.2841C14.845 49.8875 16.7816 47.6117 16.7816 44.9139C16.7816 43.3883 17.8143 42.284 18.9354 42.284H24.8016C27.3625 42.284 29.2992 39.9865 29.2992 37.3104C29.2992 34.6344 27.3625 32.3368 24.8016 32.3368H5.23225C5.85973 28.8788 7.02176 25.5313 8.71811 22.4331C9.91403 23.9345 10.8742 24.9394 10.8742 24.9394C11.3359 25.4234 12.1084 25.4234 12.5702 24.9394C12.5702 24.9394 14.3793 23.042 16.1934 20.4579C18.0075 17.8738 19.9219 14.512 19.9219 11.4445C19.9219 11.1398 19.9042 10.8122 19.874 10.5152C25.1383 7.15941 31.245 5.37912 37.5001 5.37912C39.8086 5.37912 42.1097 5.62317 44.3619 6.1047ZM17.5782 11.4445C17.5782 13.7462 15.9825 16.6983 14.2731 19.1166C13.0278 20.8783 12.0906 21.9369 11.721 22.3805C11.204 21.7674 10.3966 20.8658 9.16214 19.1166C7.46237 16.7081 5.85707 13.6774 5.85707 11.4445C5.85707 8.0634 8.50786 5.38142 11.721 5.38143C14.9342 5.38143 17.5782 8.0634 17.5782 11.4445ZM54.4647 5.38143C63.2248 5.38143 70.3034 12.4702 70.3034 21.2452C70.3034 27.1431 66.2102 34.3848 62.0155 40.1989C58.5347 45.0237 55.2172 48.5869 54.4647 49.3977C53.7488 48.6557 50.2203 44.785 46.9116 40.1989C42.717 34.3848 38.6261 27.182 38.6261 21.2452C38.6261 12.4702 45.7047 5.38143 54.4647 5.38143ZM11.721 7.72519C9.76716 7.72519 8.20084 9.30989 8.20084 11.2362C8.20084 13.1626 9.76228 14.7404 11.721 14.7404C13.6799 14.7404 15.2344 13.1626 15.2344 11.2362C15.2344 9.30989 13.6749 7.72519 11.721 7.72519ZM54.4647 9.43723C47.9377 9.43723 42.6567 14.7473 42.6567 21.2635C42.6567 27.7798 47.9331 33.0876 54.4647 33.0876C60.9963 33.0876 66.2727 27.7798 66.2727 21.2635C66.2727 14.7473 60.9917 9.43723 54.4647 9.43723ZM11.721 10.0689C12.3515 10.0689 12.8884 10.5792 12.8884 11.2362C12.8884 11.8932 12.356 12.4035 11.721 12.4035C11.0861 12.4035 10.5446 11.8932 10.5446 11.2362C10.5446 10.5792 11.0906 10.0689 11.721 10.0689ZM54.4647 11.7809C59.6726 11.7809 63.929 16.0119 63.929 21.2635C63.929 26.5152 59.6772 30.7438 54.4647 30.7438C49.2522 30.7438 45.0005 26.5152 45.0005 21.2635C45.0005 16.0119 49.2568 11.7809 54.4647 11.7809ZM53.8146 14.9649L47.4311 19.2221C46.128 20.0934 47.4349 22.048 48.738 21.1767L49.2141 20.8587V25.3036C49.2167 25.9472 49.7378 26.4684 50.3814 26.4709H58.6073C59.2518 26.4696 59.7743 25.9481 59.7769 25.3036V20.893L60.2004 21.177C61.5383 22.016 62.7705 20.0936 61.4981 19.2223L55.1123 14.9651C54.9181 14.8344 54.6894 14.7653 54.4554 14.7657C54.227 14.768 54.0042 14.8373 53.8146 14.9649V14.9649ZM54.4647 17.3451L57.431 19.3272V24.1268H51.5579V19.2906L54.4647 17.3451ZM15.5686 24.1268V26.4729H17.9146V24.1268H15.5686ZM20.2583 24.1268V26.4729H22.6021V24.1268H20.2583ZM24.9481 24.1268V26.4729H27.2919V24.1268H24.9481ZM29.4227 26.5256C30.2048 26.7103 30.5388 26.9304 30.9219 27.2534C31.424 26.7007 32.2 25.8759 32.5195 25.5459C31.8303 24.8963 30.9845 24.4601 29.8439 24.2208L29.4227 26.5256ZM33.8928 28.3543C33.4884 28.3853 32.3628 28.4885 31.5514 28.5009L31.5558 28.7552V30.7922H33.9019V28.627L33.8928 28.3543ZM31.5559 33.1403V35.4749H33.902V33.1403L31.5559 33.1403ZM24.8016 34.6806C25.9228 34.6806 26.9554 35.7981 26.9554 37.3105C26.9554 38.8228 25.9228 39.9403 24.8016 39.9403H18.9354C16.3745 39.9403 14.4379 42.2298 14.4379 44.9139C14.4379 46.4327 13.4376 47.5438 12.2841 47.5438H6.04478C5.16604 44.5795 4.68751 41.4429 4.68751 38.1917C4.68751 37.0146 4.77034 35.8439 4.89573 34.6806H24.8016ZM31.5559 37.8209V40.1646H33.902V37.8209H31.5559ZM31.5559 42.5084V44.8521H33.902V42.5084H31.5559ZM31.5559 47.1936V48.9285C31.547 49.1938 31.5918 49.4932 31.6475 49.796C32.7261 49.5426 33.1598 49.4452 33.9363 49.297C33.9053 49.107 33.8973 49.0331 33.9018 48.8004V47.1936H31.5559ZM33.3801 52.3892C34.2383 52.9858 35.147 53.3128 36.1588 53.4055L36.3625 51.0732C35.5983 50.9806 35.2027 50.791 34.758 50.4895L33.3801 52.3892ZM38.5895 51.0823V53.4284H40.9332V51.0823H38.5895ZM43.2793 51.0823V53.4284H45.623V51.0823H43.2793ZM47.9668 51.0823V53.4284H50.3128V51.0823H47.9668ZM9.79156 55.7698H20.0272C21.071 55.7698 21.9727 56.646 21.9727 57.8297C21.9727 60.2665 23.8781 62.2334 26.255 62.2334H36.1588C37.2301 62.2334 38.0974 63.1303 38.0974 64.2911C38.0974 65.4519 37.2301 66.351 36.1588 66.351H33.6685C31.5429 66.351 29.8054 67.8944 29.4502 70.0017C21.2085 67.929 14.2256 62.7489 9.79156 55.7698ZM58.2619 55.7698H65.2084C62.6068 59.8648 59.1237 63.3407 55.0232 65.9345H49.4385C48.3173 65.9345 47.4564 65.0422 47.4564 63.9798C47.4564 62.9174 48.3173 62.0251 49.4385 62.0251H51.9653C54.3352 62.0251 56.2821 60.1231 56.2821 57.7244C56.2821 56.6253 57.1773 55.7698 58.2619 55.7698Z" fill="#05486A"/>
</svg>
