<svg width="75" height="76" viewBox="0 0 75 76" fill="none" xmlns="http://www.w3.org/2000/svg">
<path d="M73.4848 16.2683C73.2649 16.0489 72.9669 15.9259 72.6562 15.9261H45.0164L52.8352 8.10735C53.5211 7.42141 53.9064 6.49108 53.9064 5.52102C53.9064 4.55096 53.5211 3.62063 52.8352 2.9347C52.1492 2.24876 51.2189 1.8634 50.2488 1.8634C49.2788 1.8634 48.3484 2.24876 47.6625 2.9347L34.6711 15.9261H10.5469V14.7542C10.5469 14.4434 10.4234 14.1454 10.2036 13.9256C9.98387 13.7058 9.6858 13.5824 9.375 13.5824H7.03125C5.47782 13.5842 3.98854 14.2021 2.8901 15.3006C1.79166 16.399 1.17374 17.8883 1.17188 19.4417V68.6605C1.17374 70.2139 1.79166 71.7032 2.8901 72.8016C3.98854 73.9001 5.47782 74.518 7.03125 74.5199H72.6562C72.967 74.5199 73.2651 74.3964 73.4849 74.1766C73.7047 73.9568 73.8281 73.6588 73.8281 73.348V17.098C73.8282 16.9439 73.798 16.7913 73.7391 16.6489C73.6801 16.5066 73.5937 16.3772 73.4848 16.2683ZM31.9617 22.5964L33.1781 23.8128L30.7453 25.0292L31.9617 22.5964ZM35.1562 22.4792L33.2988 20.6136L46.2891 7.6222L48.1477 9.48079L35.1562 22.4792ZM50.2488 4.20735C50.5088 4.2072 50.7629 4.28416 50.9791 4.4285C51.1953 4.57283 51.3637 4.77806 51.4632 5.0182C51.5627 5.25834 51.5888 5.52259 51.538 5.77752C51.4872 6.03245 51.362 6.2666 51.1781 6.45032L49.8047 7.82376L47.9461 5.96516L49.3195 4.59173C49.5666 4.34628 49.9005 4.20817 50.2488 4.20735ZM3.51562 19.4417C3.51562 18.5093 3.88602 17.6151 4.54533 16.9558C5.20464 16.2965 6.09885 15.9261 7.03125 15.9261H8.20312V62.8011H7.03125C5.76308 62.7988 4.52878 63.2102 3.51562 63.973V19.4417ZM71.4844 72.1761H7.03125C6.09885 72.1761 5.20464 71.8057 4.54533 71.1464C3.88602 70.4871 3.51562 69.5929 3.51562 68.6605C3.51562 67.7281 3.88602 66.8339 4.54533 66.1746C5.20464 65.5152 6.09885 65.1449 7.03125 65.1449H9.375C9.6858 65.1449 9.98387 65.0214 10.2036 64.8016C10.4234 64.5818 10.5469 64.2838 10.5469 63.973V18.2699H32.3273L30.8121 19.7851C30.7227 19.8741 30.6484 19.977 30.5918 20.0898L27.0762 27.121C26.9638 27.3412 26.9239 27.5914 26.9622 27.8356C27.0006 28.0799 27.1152 28.3057 27.2898 28.4809C27.4643 28.6561 27.6897 28.7715 27.9338 28.8108C28.1779 28.8501 28.4282 28.8111 28.6488 28.6995L35.6801 25.1839C35.7928 25.1274 35.8957 25.053 35.9848 24.9636L42.6727 18.2699H71.4844V72.1761Z" fill="#05486A"/>
<path d="M38.6719 22.9574C38.3611 22.9574 38.063 23.0809 37.8432 23.3006C37.6235 23.5204 37.5 23.8185 37.5 24.1293V32.3324H39.8438V29.9886H43.3594C43.6702 29.9886 43.9682 29.8652 44.188 29.6454C44.4078 29.4256 44.5312 29.1276 44.5312 28.8168V25.3011H58.5938V28.8168C58.5938 29.1276 58.7172 29.4256 58.937 29.6454C59.1568 29.8652 59.4548 29.9886 59.7656 29.9886H63.2812V41.7074H59.7656C59.4548 41.7074 59.1568 41.8309 58.937 42.0506C58.7172 42.2704 58.5938 42.5685 58.5938 42.8793V46.3949H49.2188V48.7386H63.2812V60.4574H59.7656C59.4548 60.4574 59.1568 60.5809 58.937 60.8006C58.7172 61.0204 58.5938 61.3185 58.5938 61.6293V65.1449H44.5312V61.6293C44.5312 61.3185 44.4078 61.0204 44.188 60.8006C43.9682 60.5809 43.6702 60.4574 43.3594 60.4574H39.8438V48.7386H43.3594C43.6702 48.7386 43.9682 48.6152 44.188 48.3954C44.4078 48.1756 44.5312 47.8776 44.5312 47.5668V42.8793C44.5312 42.5685 44.4078 42.2704 44.188 42.0506C43.9682 41.8309 43.6702 41.7074 43.3594 41.7074H38.6719C38.3611 41.7074 38.063 41.8309 37.8432 42.0506C37.6235 42.2704 37.5 42.5685 37.5 42.8793V46.3949H32.8125V38.1918H39.8438V35.848H18.75V29.9886H22.2656C22.5764 29.9886 22.8745 29.8652 23.0943 29.6454C23.314 29.4256 23.4375 29.1276 23.4375 28.8168V25.3011H26.9531V22.9574H17.5781C17.2673 22.9574 16.9693 23.0809 16.7495 23.3006C16.5297 23.5204 16.4062 23.8185 16.4062 24.1293V47.5668C16.4062 47.8776 16.5297 48.1756 16.7495 48.3954C16.9693 48.6152 17.2673 48.7386 17.5781 48.7386H37.5V66.3168C37.5 66.6276 37.6235 66.9256 37.8432 67.1454C38.063 67.3652 38.3611 67.4886 38.6719 67.4886H64.4531C64.7639 67.4886 65.062 67.3652 65.2818 67.1454C65.5015 66.9256 65.625 66.6276 65.625 66.3168V24.1293C65.625 23.8185 65.5015 23.5204 65.2818 23.3006C65.062 23.0809 64.7639 22.9574 64.4531 22.9574H38.6719ZM42.1875 27.6449H39.8438V25.3011H42.1875V27.6449ZM18.75 25.3011H21.0938V27.6449H18.75V25.3011ZM21.0938 46.3949H18.75V44.0511H21.0938V46.3949ZM18.75 41.7074V38.1918H30.4688V46.3949H23.4375V42.8793C23.4375 42.5685 23.314 42.2704 23.0943 42.0506C22.8745 41.8309 22.5764 41.7074 22.2656 41.7074H18.75ZM39.8438 44.0511H42.1875V46.3949H39.8438V44.0511ZM42.1875 65.1449H39.8438V62.8011H42.1875V65.1449ZM60.9375 44.0511H63.2812V46.3949H60.9375V44.0511ZM63.2812 65.1449H60.9375V62.8011H63.2812V65.1449ZM60.9375 25.3011H63.2812V27.6449H60.9375V25.3011Z" fill="#05486A"/>
</svg>
