<svg width="75" height="76" viewBox="0 0 75 76" fill="none" xmlns="http://www.w3.org/2000/svg">
<g clip-path="url(#clip0_206_1108)">
<path d="M27.6956 47.9955C27.267 47.5669 26.5719 47.5669 26.1434 47.9955L12.0935 62.0454C11.6648 62.4742 11.6648 63.1691 12.0935 63.5978C12.3077 63.812 12.5887 63.9192 12.8696 63.9192C13.1504 63.9192 13.4314 63.812 13.6457 63.5978L27.6956 49.5478C28.1243 49.119 28.1243 48.4241 27.6956 47.9955Z" fill="#05486A"/>
<path d="M60.4538 49.2423L46.7994 35.5877L72.2233 10.1635C72.4564 9.9306 72.6338 9.65648 72.7503 9.349L74.8457 3.82474C75.1723 2.96345 74.9706 2.02357 74.3191 1.37229C73.6678 0.721021 72.7281 0.519199 71.8665 0.845714L66.343 2.94091C66.0349 3.05755 65.7608 3.23493 65.5284 3.46749L58.2767 10.719C57.848 11.1478 57.848 11.8427 58.2767 12.2714C58.7055 12.6998 59.4004 12.7001 59.8291 12.2714L67.0812 5.01928C67.0921 5.0083 67.1059 4.99937 67.121 4.99366L72.6449 2.89832C72.6694 2.8891 72.7145 2.87183 72.7667 2.92452C72.8191 2.97691 72.802 3.02199 72.7929 3.04614L70.6974 8.57084C70.6918 8.58547 70.6829 8.59908 70.6714 8.6105L41.492 37.7902L37.9012 34.1992L56.7245 15.3761C57.1531 14.9473 57.1531 14.2524 56.7245 13.8238C56.2958 13.3954 55.6009 13.3951 55.1721 13.8238L40.1035 28.8922L26.4366 15.2252C26.8363 11.2566 25.4664 7.39767 22.6319 4.5628C19.5107 1.44181 15.0576 0.0881885 10.7199 0.943185C9.87627 1.10915 9.19705 1.72237 8.94708 2.54298C8.69871 3.35919 8.91956 4.24141 9.52341 4.84541L15.4065 10.7285C15.4374 10.7594 15.4481 10.8043 15.4342 10.8458L14.1483 14.7032C14.1369 14.7371 14.11 14.7642 14.0759 14.7755L10.2186 16.0613C10.1773 16.0751 10.1322 16.0646 10.1012 16.0337L4.21839 10.1509C3.61425 9.54672 2.73174 9.32587 1.91464 9.57438C1.09507 9.82362 0.482723 10.5012 0.316611 11.3428C-0.539703 15.6817 0.813189 20.1364 3.93549 23.2589C6.78295 26.1065 10.6464 27.4801 14.6102 27.0761L23.9839 36.4497C23.9414 36.488 23.8981 36.5255 23.8576 36.5661L10.0917 50.3321C9.66304 50.7609 9.66304 51.4558 10.0917 51.8844C10.306 52.0987 10.587 52.2058 10.8678 52.2058C11.1488 52.2058 11.4297 52.0987 11.6439 51.8844L20.8379 42.6904C20.838 42.6904 20.838 42.6902 20.8381 42.6902C21.3554 42.1727 22.1972 42.1729 22.7145 42.6901C22.9651 42.9408 23.1033 43.2739 23.1033 43.6283C23.1033 43.9828 22.9652 44.3159 22.7147 44.5665L8.66476 58.6165C8.1474 59.1339 7.30557 59.1339 6.78836 58.6165C6.5378 58.366 6.39965 58.0327 6.39965 57.6784C6.39965 57.3245 6.53737 56.9919 6.78719 56.7415L8.52792 55.0007C8.95659 54.5719 8.95659 53.877 8.52792 53.4484C8.0994 53.0198 7.40436 53.0198 6.97555 53.4484L1.80722 58.6165C1.14204 59.2817 0.775722 60.1663 0.775722 61.1072C0.775722 61.6887 0.916075 62.2483 1.17995 62.7484C-0.54702 65.0128 -0.377982 68.2702 1.69014 70.3383L5.35322 74.0014C6.48029 75.1283 7.96065 75.6917 9.44102 75.6917C10.6773 75.6917 11.9126 75.2973 12.943 74.5116C13.4429 74.7756 14.0027 74.9158 14.5842 74.9158C15.5249 74.9158 16.4095 74.5493 17.0747 73.8841L39.1253 51.8336C39.1659 51.7931 39.2032 51.7498 39.2415 51.7075L48.6276 61.0934C48.2279 65.0621 49.5978 68.921 52.4324 71.7557C54.9375 74.2607 58.3002 75.6269 61.7729 75.6268C62.6269 75.6268 63.488 75.5442 64.3442 75.3753C65.1878 75.2092 65.867 74.5963 66.1168 73.7754C66.3652 72.9592 66.1445 72.077 65.5405 71.473L59.6575 65.5901C59.6265 65.5591 59.6158 65.514 59.6297 65.4726L60.9156 61.6152C60.9268 61.5811 60.9539 61.5541 60.988 61.5429L64.8455 60.257C64.887 60.2431 64.932 60.2539 64.9627 60.2847L70.8457 66.1675C71.4497 66.7718 72.3325 66.9927 73.1493 66.744C73.9688 66.4948 74.5813 65.8171 74.7475 64.9756C75.6038 60.6367 74.2507 56.182 71.1286 53.0594C68.281 50.2119 64.4172 48.8378 60.4538 49.2423ZM38.1443 48.1574L27.534 37.5471L30.8177 37.078L38.6135 44.8738L38.1443 48.1574ZM30.2381 33.3937C30.2096 33.3653 30.2096 33.3188 30.2381 33.2904L32.0111 31.5174C32.0254 31.5031 32.044 31.4961 32.0629 31.4961C32.0816 31.4961 32.1003 31.5033 32.1147 31.5174L44.1738 43.5767C44.2023 43.6051 44.2023 43.6516 44.1738 43.68L42.4008 45.4529C42.3727 45.4813 42.3259 45.4816 42.2975 45.4529L30.2381 33.3937ZM14.8519 24.8351C11.3871 25.333 7.97397 24.1927 5.48786 21.7066C2.88424 19.1029 1.75614 15.3874 2.4705 11.7678C2.47474 11.7463 2.48484 11.6956 2.55362 11.6746C2.61802 11.6551 2.65051 11.6873 2.66617 11.7031L8.54929 17.5862C9.17202 18.2085 10.0778 18.4226 10.913 18.144L14.7702 16.8581C15.4563 16.6293 16.0025 16.0833 16.2311 15.3973L17.5169 11.5401C17.7953 10.7047 17.5815 9.79874 16.9589 9.17615L11.0758 3.29304C11.0591 3.2765 11.0281 3.24547 11.0474 3.18225C11.0688 3.11185 11.1236 3.10102 11.1443 3.09692C14.7629 2.38389 18.4769 3.51227 21.0796 6.11517C23.5529 8.5884 24.6889 11.9978 24.1961 15.4694C24.1476 15.8111 24.2627 16.1556 24.5068 16.3997L38.5513 30.4444L36.349 32.6467L33.6671 29.9648C32.7826 29.0804 31.3434 29.0804 30.459 29.9648L28.6861 31.7377C27.8015 32.6223 27.8015 34.0614 28.6861 34.9459L28.8773 35.1372L26.1641 35.5247L15.7843 25.1451C15.5396 24.901 15.1939 24.7859 14.8519 24.8351ZM6.90544 72.4489L3.24236 68.7858C2.56519 68.1086 2.19213 67.2082 2.19213 66.2503C2.19213 65.6118 2.35795 64.9986 2.66939 64.46L11.2305 73.0211C9.86017 73.8098 8.07583 73.6191 6.90544 72.4489ZM14.5842 72.7203C14.2298 72.7203 13.8966 72.5823 13.6459 72.3316L3.35959 62.0453C3.35945 62.0452 3.35945 62.0452 3.3593 62.045C3.10889 61.7943 2.97102 61.4614 2.97102 61.1072C2.97102 60.7527 3.10904 60.4196 3.35959 60.1691L4.48271 59.0459C4.65424 59.4543 4.90406 59.8371 5.23599 60.1691C5.92268 60.8556 6.82451 61.199 7.72649 61.199C8.62846 61.1988 9.53044 60.8556 10.217 60.1691L24.2669 46.119C24.9321 45.4538 25.2986 44.5693 25.2986 43.6283C25.2986 42.6876 24.9322 41.803 24.2669 41.1378C23.94 40.8109 23.5599 40.5567 23.1463 40.3821L25.205 38.3232L37.3677 50.486L35.3093 52.5446C35.1347 52.131 34.8805 51.751 34.5535 51.424C33.8883 50.7588 33.0038 50.3924 32.0629 50.3924C31.1221 50.3924 30.2376 50.7588 29.5724 51.424L15.5223 65.4741C14.1492 66.8473 14.1492 69.0818 15.5224 70.4552C15.8544 70.7871 16.2372 71.037 16.6456 71.2084L15.5223 72.3316C15.2717 72.5823 14.9385 72.7203 14.5842 72.7203ZM18.9511 68.903C18.4339 69.4201 17.592 69.4202 17.0747 68.903C16.5573 68.3856 16.5573 67.5437 17.0745 67.0265L31.1246 52.9764C31.3752 52.7258 31.7084 52.5878 32.0627 52.5878C32.4172 52.5878 32.7504 52.7258 33.001 52.9764C33.2516 53.2271 33.3897 53.5602 33.3897 53.9146C33.3897 54.2691 33.2517 54.6022 33.0011 54.8528L18.9511 68.903ZM72.5936 64.5506C72.5893 64.5723 72.5794 64.6227 72.5106 64.6438C72.446 64.6634 72.4138 64.6311 72.398 64.6153L66.5148 58.7322C65.8919 58.1099 64.9863 57.8958 64.1512 58.1744L60.294 59.4603C59.6079 59.689 59.0617 60.2351 58.8331 60.9212L57.5473 64.7785C57.2689 65.6137 57.4827 66.5195 58.1053 67.1424L63.9884 73.0255C64.0051 73.042 64.0361 73.073 64.017 73.1363C63.9956 73.2067 63.9409 73.2175 63.9201 73.2216C60.3024 73.9342 56.5875 72.8062 53.9847 70.2035C51.5115 67.7301 50.3755 64.3207 50.8683 60.8492C50.9167 60.5074 50.8017 60.1629 50.5577 59.9188L40.1665 49.5276L40.554 46.8145L40.7453 47.0057C41.1877 47.448 41.7685 47.669 42.3493 47.669C42.9304 47.669 43.5111 47.4479 43.9535 47.0057L45.7264 45.2328C46.6108 44.3483 46.6108 42.9092 45.7264 42.0246L43.0447 39.3428L45.247 37.1403L59.2799 51.1733C59.5245 51.4177 59.8693 51.5323 60.2124 51.4836C63.6764 50.986 67.0901 52.1258 69.5762 54.6119C72.18 57.2156 73.3079 60.9311 72.5936 64.5506Z" fill="#05486A"/>
<path d="M19.8093 18.722L18.0949 20.4364C17.6663 20.8652 17.6663 21.5601 18.0949 21.9888C18.3092 22.203 18.5902 22.3102 18.8711 22.3102C19.1519 22.3102 19.4329 22.203 19.6472 21.9888L21.3615 20.2744C21.7902 19.8456 21.7902 19.1507 21.3615 18.722C20.9329 18.2935 20.2378 18.2935 19.8093 18.722Z" fill="#05486A"/>
<path d="M55.4167 54.3294L53.7024 56.0438C53.2737 56.4726 53.2737 57.1675 53.7024 57.5962C53.9168 57.8105 54.1978 57.9176 54.4786 57.9176C54.7595 57.9176 55.0405 57.8103 55.2549 57.5962L56.9693 55.8818C57.3979 55.453 57.3979 54.7581 56.9693 54.3294C56.5403 53.9009 55.8454 53.9009 55.4167 54.3294Z" fill="#05486A"/>
</g>
<defs>
<clipPath id="clip0_206_1108">
<rect width="75" height="75" fill="white" transform="translate(0 0.69165)"/>
</clipPath>
</defs>
</svg>
