<svg width="34" height="34" viewBox="0 0 34 34" fill="none" xmlns="http://www.w3.org/2000/svg">
<g clip-path="url(#clip0_1882_71)">
<path d="M3.4 34H17C17.9015 33.9991 18.7657 33.6406 19.4032 33.0032C20.0406 32.3657 20.3991 31.5015 20.4 30.6C20.4 30.4497 20.3403 30.3056 20.234 30.1993C20.1278 30.093 19.9836 30.0333 19.8333 30.0333C19.683 30.0333 19.5389 30.093 19.4326 30.1993C19.3264 30.3056 19.2667 30.4497 19.2667 30.6C19.2667 31.2012 19.0279 31.7777 18.6028 32.2028C18.1777 32.6279 17.6012 32.8667 17 32.8667H3.4C2.79884 32.8667 2.22231 32.6279 1.79722 32.2028C1.37214 31.7777 1.13333 31.2012 1.13333 30.6V3.4C1.13333 2.79884 1.37214 2.22231 1.79722 1.79722C2.22231 1.37214 2.79884 1.13333 3.4 1.13333H3.61647L4.8467 3.5938C4.98702 3.87683 5.20383 4.11487 5.47256 4.28093C5.74129 4.447 6.05117 4.53444 6.36707 4.53333H14.0329C14.3488 4.53444 14.6587 4.447 14.9274 4.28093C15.1962 4.11487 15.413 3.87683 15.5533 3.5938L16.7835 1.13333H17C17.6012 1.13333 18.1777 1.37214 18.6028 1.79722C19.0279 2.22231 19.2667 2.79884 19.2667 3.4V4.53333C19.2667 4.68362 19.3264 4.82776 19.4326 4.93403C19.5389 5.0403 19.683 5.1 19.8333 5.1C19.9836 5.1 20.1278 5.0403 20.234 4.93403C20.3403 4.82776 20.4 4.68362 20.4 4.53333V3.4C20.3991 2.49854 20.0406 1.63426 19.4032 0.996831C18.7657 0.359402 17.9015 0.00090011 17 0L3.4 0C2.49854 0.00090011 1.63426 0.359402 0.996831 0.996831C0.359402 1.63426 0.00090011 2.49854 0 3.4L0 30.6C0.00090011 31.5015 0.359402 32.3657 0.996831 33.0032C1.63426 33.6406 2.49854 33.9991 3.4 34ZM14.5395 3.08663C14.4928 3.181 14.4206 3.26038 14.331 3.31576C14.2415 3.37115 14.1382 3.40034 14.0329 3.4H6.36707C6.26178 3.40034 6.1585 3.37115 6.06895 3.31576C5.97941 3.26038 5.90718 3.181 5.86047 3.08663L4.88353 1.13333H15.5165L14.5395 3.08663Z" fill="#05486A"/>
<path d="M14.7333 31.7333C14.8836 31.7333 15.0277 31.6736 15.134 31.5673C15.2403 31.4611 15.3 31.3169 15.3 31.1666C15.3 31.0164 15.2403 30.8722 15.134 30.7659C15.0277 30.6597 14.8836 30.6 14.7333 30.6H5.66664C5.51635 30.6 5.37222 30.6597 5.26595 30.7659C5.15968 30.8722 5.09998 31.0164 5.09998 31.1666C5.09998 31.3169 5.15968 31.4611 5.26595 31.5673C5.37222 31.6736 5.51635 31.7333 5.66664 31.7333H14.7333Z" fill="#05486A"/>
<path d="M28.313 18.8632C27.8807 18.4503 27.3059 18.2199 26.7082 18.2199C26.1104 18.2199 25.5356 18.4503 25.1034 18.8632L23.9802 19.9863C23.9574 20.0111 23.9267 20.0272 23.8933 20.0318C23.8599 20.0365 23.826 20.0294 23.7972 20.0118C22.4151 19.0244 21.2057 17.8153 20.2181 16.4333C20.2016 16.4053 20.1951 16.3725 20.1997 16.3403C20.2042 16.3081 20.2195 16.2783 20.2431 16.2559L21.369 15.13C21.7938 14.7039 22.0324 14.1268 22.0324 13.5252C22.0324 12.9235 21.7938 12.3464 21.369 11.9204L19.7461 10.2963C19.3139 9.8839 18.7395 9.65381 18.1422 9.65381C17.5448 9.65381 16.9704 9.8839 16.5382 10.2963C14.9855 11.849 14.3849 14.2766 14.9277 16.7926C15.2938 18.4767 16.2124 20.0175 17.8268 21.65C18.3368 22.1413 18.2382 22.0524 18.589 22.4122C20.2125 24.0181 21.7538 24.9367 23.4402 25.3022C25.7635 25.8003 28.2682 25.3589 29.9342 23.6912C30.1453 23.4806 30.3128 23.2305 30.427 22.9551C30.5413 22.6797 30.6001 22.3845 30.6001 22.0864C30.6001 21.7882 30.5413 21.493 30.427 21.2176C30.3128 20.9423 30.1453 20.6921 29.9342 20.4816L28.313 18.8632ZM29.1341 22.8933C28.6181 23.3899 28.0066 23.7765 27.3367 24.0298C26.6669 24.283 25.9526 24.3976 25.2371 24.3666C22.8571 24.3666 21.0732 23.2769 19.3936 21.616C18.8156 21.0193 18.8417 21.0596 18.6241 20.8471C17.3629 19.6977 16.4639 18.206 16.0367 16.554C15.5743 14.4171 16.0616 12.3782 17.34 11.0993C17.4453 10.9935 17.5705 10.9095 17.7084 10.8522C17.8462 10.7949 17.994 10.7655 18.1433 10.7655C18.2926 10.7655 18.4404 10.7949 18.5782 10.8522C18.7161 10.9095 18.8412 10.9935 18.9465 11.0993L20.57 12.7205C20.6759 12.8258 20.7599 12.951 20.8173 13.0889C20.8746 13.2268 20.9041 13.3747 20.9041 13.524C20.9041 13.6734 20.8746 13.8212 20.8173 13.9591C20.7599 14.097 20.6759 14.2223 20.57 14.3276L19.4367 15.4564C19.2217 15.669 19.0897 15.9513 19.0645 16.2526C19.0392 16.5539 19.1224 16.8543 19.299 17.0997C20.357 18.5785 21.6512 19.8731 23.1297 20.9315C23.3756 21.1089 23.6769 21.1925 23.979 21.167C24.2812 21.1415 24.5642 21.0088 24.777 20.7927L25.9046 19.6633C26.1179 19.4504 26.4069 19.3309 26.7082 19.3309C27.0095 19.3309 27.2985 19.4504 27.5117 19.6633L29.1329 21.2845C29.2392 21.3898 29.3235 21.5151 29.3811 21.6531C29.4387 21.7911 29.4684 21.9391 29.4685 22.0887C29.4686 22.2382 29.4391 22.3863 29.3817 22.5244C29.3243 22.6625 29.2401 22.7879 29.1341 22.8933Z" fill="#05486A"/>
<path d="M30.6 6.23328H14.7334C13.8319 6.23418 12.9676 6.59268 12.3302 7.23011C11.6928 7.86754 11.3343 8.73182 11.3334 9.63328V13.2599L5.12948 16.5687C4.949 16.6656 4.79817 16.8097 4.69302 16.9855C4.58788 17.1613 4.53235 17.3623 4.53235 17.5672C4.53235 17.772 4.58788 17.9731 4.69302 18.1489C4.79817 18.3247 4.949 18.4687 5.12948 18.5656L11.3334 21.8733V25.4999C11.3343 26.4014 11.6928 27.2657 12.3302 27.9031C12.9676 28.5405 13.8319 28.899 14.7334 28.8999H30.6C31.5015 28.899 32.3658 28.5405 33.0032 27.9031C33.6406 27.2657 33.9991 26.4014 34 25.4999V9.63328C33.9991 8.73182 33.6406 7.86754 33.0032 7.23011C32.3658 6.59268 31.5015 6.23418 30.6 6.23328ZM32.8667 25.4999C32.8667 26.1011 32.6279 26.6776 32.2028 27.1027C31.7777 27.5278 31.2012 27.7666 30.6 27.7666H14.7334C14.1322 27.7666 13.5557 27.5278 13.1306 27.1027C12.7055 26.6776 12.4667 26.1011 12.4667 25.4999V21.5333C12.4667 21.4306 12.4388 21.3299 12.386 21.2419C12.3332 21.1539 12.2575 21.0818 12.1669 21.0335L5.66668 17.5666L12.1686 14.0986C12.2587 14.0501 12.3339 13.9782 12.3864 13.8904C12.4389 13.8026 12.4666 13.7022 12.4667 13.5999V9.63328C12.4667 9.03212 12.7055 8.45558 13.1306 8.0305C13.5557 7.60542 14.1322 7.36661 14.7334 7.36661H30.6C31.2012 7.36661 31.7777 7.60542 32.2028 8.0305C32.6279 8.45558 32.8667 9.03212 32.8667 9.63328V25.4999Z" fill="#05486A"/>
</g>
<defs>
<clipPath id="clip0_1882_71">
<rect width="34" height="34" fill="white"/>
</clipPath>
</defs>
</svg>
