<svg width="31" height="32" viewBox="0 0 31 32" fill="none" xmlns="http://www.w3.org/2000/svg">
<path fill-rule="evenodd" clip-rule="evenodd" d="M15.4998 1.32373C7.65296 1.32373 1.2915 7.68519 1.2915 15.5321C1.2915 23.3789 7.65296 29.7404 15.4998 29.7404C23.3467 29.7404 29.7082 23.3789 29.7082 15.5321C29.7082 7.68519 23.3467 1.32373 15.4998 1.32373ZM20.288 12.5703C20.5233 12.3267 20.6535 12.0004 20.6506 11.6617C20.6476 11.323 20.5118 10.9991 20.2723 10.7596C20.0328 10.5201 19.7089 10.3843 19.3702 10.3813C19.0315 10.3784 18.7052 10.5086 18.4616 10.7439L15.4998 13.7056L12.538 10.7439C12.4189 10.6205 12.2764 10.5221 12.1188 10.4544C11.9612 10.3867 11.7917 10.3511 11.6202 10.3496C11.4487 10.3481 11.2786 10.3808 11.1199 10.4457C10.9611 10.5107 10.8169 10.6066 10.6956 10.7278C10.5743 10.8491 10.4784 10.9933 10.4135 11.1521C10.3485 11.3108 10.3159 11.4809 10.3173 11.6524C10.3188 11.8239 10.3545 11.9934 10.4222 12.151C10.4899 12.3086 10.5883 12.4511 10.7116 12.5703L13.6734 15.5321L10.7116 18.4939C10.5883 18.613 10.4899 18.7555 10.4222 18.9131C10.3545 19.0707 10.3188 19.2402 10.3173 19.4117C10.3159 19.5832 10.3485 19.7533 10.4135 19.912C10.4784 20.0708 10.5743 20.215 10.6956 20.3363C10.8169 20.4576 10.9611 20.5535 11.1199 20.6184C11.2786 20.6834 11.4487 20.716 11.6202 20.7146C11.7917 20.7131 11.9612 20.6774 12.1188 20.6097C12.2764 20.542 12.4189 20.4436 12.538 20.3203L15.4998 17.3585L18.4616 20.3203C18.7052 20.5556 19.0315 20.6858 19.3702 20.6828C19.7089 20.6799 20.0328 20.544 20.2723 20.3045C20.5118 20.0651 20.6476 19.7411 20.6506 19.4024C20.6535 19.0637 20.5233 18.7375 20.288 18.4939L17.3263 15.5321L20.288 12.5703Z" fill="white"/>
</svg>
