<svg width="27" height="27" viewBox="0 0 27 27" fill="none" xmlns="http://www.w3.org/2000/svg">
<path d="M13.5 25.3125C10.3671 25.3125 7.36257 24.068 5.1473 21.8527C2.93203 19.6374 1.6875 16.6329 1.6875 13.5C1.6875 10.3671 2.93203 7.36257 5.1473 5.1473C7.36257 2.93203 10.3671 1.6875 13.5 1.6875C16.6329 1.6875 19.6374 2.93203 21.8527 5.1473C24.068 7.36257 25.3125 10.3671 25.3125 13.5C25.3125 16.6329 24.068 19.6374 21.8527 21.8527C19.6374 24.068 16.6329 25.3125 13.5 25.3125ZM13.5 27C17.0804 27 20.5142 25.5777 23.0459 23.0459C25.5777 20.5142 27 17.0804 27 13.5C27 9.91958 25.5777 6.4858 23.0459 3.95406C20.5142 1.42232 17.0804 0 13.5 0C9.91958 0 6.4858 1.42232 3.95406 3.95406C1.42232 6.4858 0 9.91958 0 13.5C0 17.0804 1.42232 20.5142 3.95406 23.0459C6.4858 25.5777 9.91958 27 13.5 27Z" fill="#BBBBBB"/>
<path d="M7.84011 7.84014C7.91848 7.76156 8.01159 7.69922 8.1141 7.65668C8.21661 7.61415 8.3265 7.59225 8.43748 7.59225C8.54846 7.59225 8.65836 7.61415 8.76086 7.65668C8.86337 7.69922 8.95648 7.76156 9.03486 7.84014L13.5 12.307L17.9651 7.84014C18.0436 7.76169 18.1367 7.69946 18.2392 7.657C18.3417 7.61455 18.4515 7.5927 18.5625 7.5927C18.6734 7.5927 18.7833 7.61455 18.8858 7.657C18.9883 7.69946 19.0814 7.76169 19.1599 7.84014C19.2383 7.91859 19.3005 8.01172 19.343 8.11422C19.3854 8.21671 19.4073 8.32657 19.4073 8.43751C19.4073 8.54846 19.3854 8.65831 19.343 8.76081C19.3005 8.86331 19.2383 8.95644 19.1599 9.03489L14.693 13.5L19.1599 17.9651C19.2383 18.0436 19.3005 18.1367 19.343 18.2392C19.3854 18.3417 19.4073 18.4516 19.4073 18.5625C19.4073 18.6735 19.3854 18.7833 19.343 18.8858C19.3005 18.9883 19.2383 19.0814 19.1599 19.1599C19.0814 19.2383 18.9883 19.3006 18.8858 19.343C18.7833 19.3855 18.6734 19.4073 18.5625 19.4073C18.4515 19.4073 18.3417 19.3855 18.2392 19.343C18.1367 19.3006 18.0436 19.2383 17.9651 19.1599L13.5 14.6931L9.03486 19.1599C8.95641 19.2383 8.86328 19.3006 8.76078 19.343C8.65828 19.3855 8.54842 19.4073 8.43748 19.4073C8.32654 19.4073 8.21668 19.3855 8.11418 19.343C8.01169 19.3006 7.91856 19.2383 7.84011 19.1599C7.76166 19.0814 7.69943 18.9883 7.65697 18.8858C7.61452 18.7833 7.59267 18.6735 7.59267 18.5625C7.59267 18.4516 7.61452 18.3417 7.65697 18.2392C7.69943 18.1367 7.76166 18.0436 7.84011 17.9651L12.3069 13.5L7.84011 9.03489C7.76153 8.95651 7.69919 8.8634 7.65665 8.76089C7.61412 8.65839 7.59222 8.54849 7.59222 8.43751C7.59222 8.32653 7.61412 8.21664 7.65665 8.11413C7.69919 8.01162 7.76153 7.91851 7.84011 7.84014Z" fill="#BBBBBB"/>
</svg>
