<svg width="7" height="19" viewBox="0 0 7 19" fill="none" xmlns="http://www.w3.org/2000/svg">
<path d="M3.5 0C4.03043 0 4.53914 0.200178 4.91421 0.556497C5.28929 0.912816 5.5 1.39609 5.5 1.9C5.5 2.40391 5.28929 2.88718 4.91421 3.2435C4.53914 3.59982 4.03043 3.8 3.5 3.8C2.96957 3.8 2.46086 3.59982 2.08579 3.2435C1.71071 2.88718 1.5 2.40391 1.5 1.9C1.5 1.39609 1.71071 0.912816 2.08579 0.556497C2.46086 0.200178 2.96957 0 3.5 0ZM2 4.75H5C5.53043 4.75 6.03914 4.95018 6.41421 5.3065C6.78929 5.66282 7 6.14609 7 6.65V11.875H5.5V19H1.5V11.875H0V6.65C0 6.14609 0.210714 5.66282 0.585787 5.3065C0.96086 4.95018 1.46957 4.75 2 4.75Z" fill="#666666"/>
</svg>
