<svg width="20" height="20" viewBox="0 0 20 20" fill="none" xmlns="http://www.w3.org/2000/svg">
<g clip-path="url(#clip0_206_383)">
<path d="M9.99979 4.375C7.8026 4.375 6.49072 5.74844 6.49072 8.04875C6.49072 9.35781 8.2301 12.3822 9.99916 14.7969C11.7576 12.3741 13.5088 9.38719 13.5088 8.04875C13.5088 5.74844 12.197 4.375 9.99979 4.375ZM9.99604 9.62281C9.14479 9.62281 8.45479 8.93281 8.45479 8.08156C8.45479 7.23031 9.14479 6.54031 9.99604 6.54031C10.8473 6.54031 11.5373 7.23031 11.5373 8.08156C11.5373 8.93281 10.8473 9.62281 9.99604 9.62281Z" fill="#05486A"/>
<path d="M10 0C4.47719 0 0 4.47719 0 10C0 15.5228 4.47719 20 10 20C15.5228 20 20 15.5228 20 10C20 4.47719 15.5228 0 10 0ZM10.5856 16.1063L10 16.875L9.41781 16.1063C8.98938 15.5463 5.24094 10.5419 5.24094 8.04875C5.24094 5.05781 7.10781 3.125 10 3.125C12.8922 3.125 14.7591 5.05781 14.7591 8.04875C14.7591 10.5381 11.0103 15.5425 10.5856 16.1063Z" fill="#05486A"/>
</g>
<defs>
<clipPath id="clip0_206_383">
<rect width="20" height="20" fill="white"/>
</clipPath>
</defs>
</svg>
