<svg width="32" height="32" viewBox="0 0 32 32" fill="none" xmlns="http://www.w3.org/2000/svg">
<g clip-path="url(#clip0_1814_87)">
<path d="M16 0C20.2435 0 24.3131 1.68571 27.3137 4.68629C30.3143 7.68687 32 11.7565 32 16C32 20.2435 30.3143 24.3131 27.3137 27.3137C24.3131 30.3143 20.2435 32 16 32C11.7565 32 7.68687 30.3143 4.68629 27.3137C1.68571 24.3131 0 20.2435 0 16C0 11.7565 1.68571 7.68687 4.68629 4.68629C7.68687 1.68571 11.7565 0 16 0ZM10.186 18.42C10.0795 18.5695 10.0163 18.7455 10.0032 18.9286C9.99006 19.1116 10.0276 19.2948 10.1117 19.458C10.1957 19.6212 10.3231 19.758 10.4798 19.8537C10.6365 19.9493 10.8164 19.9999 11 20H21C21.1836 19.9999 21.3635 19.9493 21.5202 19.8537C21.6769 19.758 21.8043 19.6212 21.8883 19.458C21.9724 19.2948 22.0099 19.1116 21.9968 18.9286C21.9837 18.7455 21.9205 18.5695 21.814 18.42L16.814 11.42C16.7215 11.2904 16.5994 11.1847 16.4578 11.1118C16.3162 11.0389 16.1593 11.0009 16 11.0009C15.8407 11.0009 15.6838 11.0389 15.5422 11.1118C15.4006 11.1847 15.2785 11.2904 15.186 11.42L10.186 18.42Z" fill="#D03427"/>
</g>
<defs>
<clipPath id="clip0_1814_87">
<rect width="32" height="32" fill="white" transform="translate(0 32) rotate(-90)"/>
</clipPath>
</defs>
</svg>
