<svg width="34" height="34" viewBox="0 0 34 34" fill="none" xmlns="http://www.w3.org/2000/svg">
<g clip-path="url(#clip0_1882_76)">
<path d="M19.9723 25.9246V19.8284C19.9723 19.5541 19.7499 19.3317 19.4756 19.3317C19.2013 19.3317 18.9789 19.5541 18.9789 19.8284V25.9246C18.9789 26.1989 19.2013 26.4213 19.4756 26.4213C19.7499 26.4213 19.9723 26.1989 19.9723 25.9246Z" fill="#05486A"/>
<path d="M33.3448 6.62475H32.1477V4.41655C32.1477 4.0808 31.8745 3.80767 31.5387 3.80767H29.2092V0.827887C29.2092 0.37141 28.8378 0 28.3813 0H5.61871C5.16224 0 4.79083 0.37141 4.79083 0.827887V3.8076H2.64312C2.30737 3.8076 2.03424 4.08073 2.03424 4.41648V6.62475H0.655244C0.305881 6.62475 0.0217285 6.90897 0.0217285 7.25827V9.20112C0.0217285 9.55041 0.305947 9.83463 0.655244 9.83463H0.880096V33.5031C0.880096 33.7775 1.10249 33.9999 1.37681 33.9999H32.6232C32.8976 33.9999 33.1199 33.7775 33.1199 33.5031V25.9247C33.1199 25.6503 32.8975 25.4279 32.6232 25.4279C32.3488 25.4279 32.1265 25.6503 32.1265 25.9247V33.0066H30.6837V28.786V16.9672V12.505C30.6837 12.0904 30.3464 11.7531 29.9318 11.7531H21.3956H16.6653C16.3909 11.7531 16.1685 11.9755 16.1685 12.2498C16.1685 12.5242 16.3909 12.7465 16.6653 12.7465H20.8989V33.0065H13.1011V12.7466H14.3568C14.6312 12.7466 14.8535 12.5242 14.8535 12.2499C14.8535 11.9756 14.6311 11.7532 14.3568 11.7532H12.6044H4.06819C3.65362 11.7532 3.31634 12.0905 3.31634 12.505V33.0066H1.87353V9.83477H32.1264V23.6059C32.1264 23.8802 32.3488 24.1026 32.6231 24.1026C32.8975 24.1026 33.1199 23.8802 33.1199 23.6059V9.8347H33.3447C33.6941 9.8347 33.9782 9.55048 33.9782 9.20118V7.25834C33.9783 6.90897 33.6941 6.62475 33.3448 6.62475ZM21.8924 12.7466H29.6902V16.4705H21.8924V12.7466ZM21.8924 17.4639H29.6902V28.2892H21.8924V17.4639ZM21.8924 29.2827H29.6902V33.0066H21.8924V29.2827ZM4.30985 12.7466H12.1077V16.4705H4.30985V12.7466ZM4.30985 17.4639H12.1077V28.2892H4.30985V17.4639ZM4.30985 29.2827H12.1077V33.0066H4.30985V29.2827ZM29.2092 4.80111H31.1542V6.62475H29.2092V4.80111ZM5.78433 0.993504H28.2157V6.62482H5.78433V0.993504ZM3.02767 4.80111H4.79083V6.62475H3.02767V4.80111ZM32.9849 8.84126H1.01517V7.61826H32.9848V8.84126H32.9849Z" fill="#05486A"/>
</g>
<defs>
<clipPath id="clip0_1882_76">
<rect width="34" height="34" fill="white"/>
</clipPath>
</defs>
</svg>
