<svg width="23" height="23" viewBox="0 0 23 23" fill="none" xmlns="http://www.w3.org/2000/svg">
<path d="M11.5 0C9.22549 0 7.00208 0.674463 5.11091 1.9381C3.21975 3.20174 1.74576 4.99779 0.875356 7.09914C0.00494841 9.20049 -0.22279 11.5128 0.22094 13.7435C0.66467 15.9743 1.75994 18.0234 3.36824 19.6317C4.97655 21.24 7.02565 22.3353 9.25643 22.779C11.4872 23.2228 13.7995 22.995 15.9008 22.1246C18.0022 21.2542 19.7982 19.7802 21.0619 17.8891C22.3255 15.9979 23 13.7745 23 11.5C23 8.45001 21.7884 5.52494 19.6317 3.36827C17.475 1.2116 14.55 0 11.5 0V0ZM16.8036 15.0892C16.5342 15.127 15.2254 15.0892 15.1573 15.0892C14.8189 15.0926 14.4927 14.9627 14.2494 14.7276C13.9725 14.4613 13.7228 14.1692 13.458 13.8908C13.378 13.8065 13.2915 13.7285 13.1992 13.6578C12.9829 13.4913 12.7695 13.5291 12.6681 13.7834C12.589 14.059 12.5343 14.341 12.5047 14.6262C12.5026 14.6858 12.4887 14.7444 12.4639 14.7987C12.439 14.8529 12.4038 14.9018 12.3601 14.9424C12.3164 14.983 12.2651 15.0146 12.2091 15.0354C12.1532 15.0562 12.0937 15.0657 12.0341 15.0635C11.8556 15.0726 11.677 15.0756 11.5 15.0635C10.8559 15.0609 10.2216 14.9053 9.64938 14.6095C9.03137 14.2642 8.49269 13.793 8.06813 13.2265C7.38852 12.3298 6.80145 11.3665 6.31589 10.3515C6.29017 10.3016 5.78023 9.21665 5.76813 9.1652C5.73787 9.09462 5.73557 9.01518 5.7617 8.94297C5.78783 8.87076 5.84044 8.81119 5.90885 8.77632C5.99964 8.74151 7.68076 8.77632 7.708 8.77632C7.8331 8.77454 7.95547 8.81299 8.05708 8.886C8.15869 8.95901 8.23417 9.06271 8.2724 9.18184C8.58333 9.97635 9.00791 10.7215 9.53287 11.3941C9.60651 11.4836 9.69263 11.5621 9.78859 11.6271C9.81331 11.6511 9.84398 11.668 9.87743 11.6762C9.91087 11.6843 9.94589 11.6835 9.97888 11.6736C10.0119 11.6637 10.0416 11.6452 10.0651 11.62C10.0886 11.5949 10.1049 11.5639 10.1124 11.5303C10.179 11.311 10.2182 11.0843 10.2289 10.8554C10.238 10.4014 10.2289 10.0988 10.2032 9.64487C10.2123 9.49017 10.1601 9.33811 10.0578 9.22168C9.95558 9.10525 9.81153 9.03384 9.65694 9.02296C9.52379 9.00026 9.50563 8.89132 9.59793 8.78237C9.77497 8.55691 10.0201 8.52059 10.2864 8.50697C10.6889 8.48428 11.0929 8.50697 11.4969 8.50697H11.5847C11.7621 8.50653 11.939 8.52428 12.1128 8.55993C12.2144 8.58074 12.3066 8.63382 12.3755 8.71126C12.4445 8.7887 12.4866 8.88635 12.4956 8.98967C12.516 9.10401 12.5251 9.22007 12.5229 9.33618C12.5123 9.8325 12.4881 10.3273 12.482 10.8221C12.4783 11.0181 12.4961 11.214 12.535 11.4062C12.594 11.6695 12.774 11.7361 12.9587 11.5454C13.1887 11.298 13.3997 11.0334 13.5896 10.754C13.931 10.2465 14.2123 9.70119 14.4279 9.12888C14.5444 8.83533 14.6337 8.77026 14.95 8.77026H16.734C16.8403 8.76864 16.9463 8.7824 17.0487 8.81112C17.0848 8.82073 17.1185 8.83766 17.1477 8.86085C17.177 8.88403 17.2012 8.91299 17.2188 8.9459C17.2364 8.97882 17.247 9.01501 17.25 9.05221C17.253 9.08941 17.2484 9.12684 17.2364 9.16217C17.1324 9.5419 16.9533 9.89693 16.7098 10.2063C16.3466 10.7207 15.9653 11.2216 15.5931 11.7285C15.5456 11.7931 15.5027 11.8608 15.4644 11.9312C15.3252 12.1839 15.3358 12.3247 15.5371 12.5365C15.8609 12.8709 16.2074 13.1826 16.5191 13.5246C16.7487 13.7746 16.9562 14.0439 17.1395 14.3296C17.3695 14.6897 17.2288 15.0287 16.8036 15.0892Z" fill="white"/>
</svg>
