<svg width="23" height="23" viewBox="0 0 23 23" fill="none" xmlns="http://www.w3.org/2000/svg">
<path d="M11.4999 0C9.22546 0 7.00205 0.674463 5.11089 1.9381C3.21972 3.20174 1.74574 4.99779 0.875329 7.09914C0.00492171 9.20049 -0.222817 11.5128 0.220913 13.7435C0.664643 15.9743 1.75991 18.0234 3.36822 19.6317C4.97652 21.24 7.02562 22.3353 9.25641 22.779C11.4872 23.2228 13.7995 22.995 15.9008 22.1246C18.0022 21.2542 19.7982 19.7802 21.0618 17.8891C22.3255 15.9979 22.9999 13.7745 22.9999 11.5C22.9999 8.45001 21.7883 5.52494 19.6317 3.36827C17.475 1.2116 14.5499 0 11.4999 0V0ZM16.8036 15.0892C16.5342 15.127 15.2253 15.0892 15.1572 15.0892C14.8189 15.0926 14.4927 14.9627 14.2494 14.7276C13.9724 14.4613 13.7228 14.1692 13.458 13.8908C13.378 13.8065 13.2914 13.7285 13.1992 13.6578C12.9828 13.4913 12.7695 13.5291 12.6681 13.7834C12.589 14.059 12.5343 14.341 12.5047 14.6262C12.5025 14.6858 12.4887 14.7444 12.4638 14.7987C12.439 14.8529 12.4037 14.9018 12.36 14.9424C12.3163 14.983 12.265 15.0146 12.2091 15.0354C12.1532 15.0562 12.0937 15.0657 12.0341 15.0635C11.8555 15.0726 11.677 15.0756 11.4999 15.0635C10.8558 15.0609 10.2216 14.9053 9.64935 14.6095C9.03135 14.2642 8.49266 13.793 8.0681 13.2265C7.3885 12.3298 6.80142 11.3665 6.31587 10.3515C6.29014 10.3016 5.78021 9.21665 5.7681 9.1652C5.73784 9.09462 5.73555 9.01518 5.76168 8.94297C5.78781 8.87076 5.84041 8.81119 5.90883 8.77632C5.99962 8.74151 7.68073 8.77632 7.70797 8.77632C7.83308 8.77454 7.95544 8.81299 8.05705 8.886C8.15866 8.95901 8.23414 9.06271 8.27238 9.18184C8.58331 9.97635 9.00788 10.7215 9.53284 11.3941C9.60648 11.4836 9.6926 11.5621 9.78856 11.6271C9.81329 11.6511 9.84395 11.668 9.8774 11.6762C9.91085 11.6843 9.94586 11.6835 9.97885 11.6736C10.0118 11.6637 10.0416 11.6452 10.0651 11.62C10.0885 11.5949 10.1049 11.5639 10.1124 11.5303C10.179 11.311 10.2181 11.0843 10.2289 10.8554C10.238 10.4014 10.2289 10.0988 10.2032 9.64487C10.2123 9.49017 10.1601 9.33811 10.0578 9.22168C9.95555 9.10525 9.8115 9.03384 9.65692 9.02296C9.52376 9.00026 9.5056 8.89132 9.59791 8.78237C9.77494 8.55691 10.0201 8.52059 10.2864 8.50697C10.6889 8.48428 11.0929 8.50697 11.4969 8.50697H11.5847C11.7621 8.50653 11.939 8.52428 12.1128 8.55993C12.2144 8.58074 12.3065 8.63382 12.3755 8.71126C12.4445 8.7887 12.4866 8.88635 12.4956 8.98967C12.5159 9.10401 12.5251 9.22007 12.5228 9.33618C12.5122 9.8325 12.488 10.3273 12.482 10.8221C12.4783 11.0181 12.4961 11.214 12.5349 11.4062C12.594 11.6695 12.774 11.7361 12.9586 11.5454C13.1887 11.298 13.3996 11.0334 13.5896 10.754C13.931 10.2465 14.2123 9.70119 14.4279 9.12888C14.5444 8.83533 14.6337 8.77026 14.9499 8.77026H16.734C16.8403 8.76864 16.9463 8.7824 17.0487 8.81112C17.0848 8.82073 17.1185 8.83766 17.1477 8.86085C17.177 8.88403 17.2011 8.91299 17.2187 8.9459C17.2363 8.97882 17.247 9.01501 17.25 9.05221C17.253 9.08941 17.2484 9.12684 17.2363 9.16217C17.1324 9.5419 16.9533 9.89693 16.7097 10.2063C16.3466 10.7207 15.9653 11.2216 15.593 11.7285C15.5456 11.7931 15.5026 11.8608 15.4644 11.9312C15.3252 12.1839 15.3358 12.3247 15.537 12.5365C15.8609 12.8709 16.2074 13.1826 16.5191 13.5246C16.7487 13.7746 16.9562 14.0439 17.1395 14.3296C17.3695 14.6897 17.2288 15.0287 16.8036 15.0892Z" fill="#05486A"/>
</svg>
