<svg width="23" height="23" viewBox="0 0 23 23" fill="none" xmlns="http://www.w3.org/2000/svg">
<path d="M14.6776 8.32239L14.6549 8.29969C13.9028 7.55155 12.9088 7.09563 11.8511 7.01361C10.7934 6.9316 9.74109 7.22884 8.8826 7.85209C8.0241 8.47534 7.41555 9.38388 7.16595 10.415C6.91634 11.4461 7.042 12.5324 7.5204 13.4792L7.71711 13.8666L7.34942 15.6491V15.6718L9.11527 15.2527L9.51777 15.4524C10.3555 15.8682 11.3026 16.0107 12.2255 15.8597C13.1485 15.7088 14.0009 15.2721 14.6625 14.6111C15.4932 13.7764 15.9608 12.6475 15.9636 11.4698C15.9665 10.2922 15.5043 9.16109 14.6776 8.32239ZM14.4991 13.3158C14.2827 13.6563 13.9392 14.0724 13.511 14.1768C12.7544 14.3599 11.6029 14.1768 10.1609 12.8437L10.1427 12.8271C8.8883 11.6559 8.5554 10.6799 8.62955 9.90667C8.67343 9.46785 9.03961 9.0714 9.3483 8.81114C9.39725 8.76944 9.45533 8.73985 9.51783 8.72473C9.58034 8.70962 9.64552 8.70942 9.70811 8.72415C9.77071 8.73888 9.82897 8.76812 9.87817 8.80952C9.92738 8.85092 9.96617 8.90331 9.99139 8.96246L10.4559 10.0217C10.4863 10.0893 10.4976 10.1638 10.4888 10.2374C10.48 10.311 10.4514 10.3808 10.406 10.4393L10.1699 10.7419C10.1209 10.8048 10.0917 10.8808 10.086 10.9603C10.0803 11.0398 10.0985 11.1192 10.1382 11.1883C10.3625 11.5183 10.6308 11.8161 10.9356 12.0735C11.2629 12.3902 11.6351 12.6569 12.0402 12.8649C12.114 12.8948 12.1951 12.9021 12.273 12.8856C12.3509 12.8692 12.4221 12.8298 12.4775 12.7726L12.7484 12.4987C12.7989 12.4408 12.8647 12.3981 12.9383 12.3757C13.0118 12.3532 13.0902 12.3518 13.1645 12.3716L14.2691 12.6894C14.3305 12.7073 14.3869 12.7393 14.4338 12.7828C14.4807 12.8263 14.5169 12.8801 14.5395 12.9399C14.5621 12.9998 14.5705 13.0641 14.564 13.1277C14.5575 13.1914 14.5363 13.2527 14.5021 13.3067L14.4991 13.3158Z" fill="#05486A"/>
<path d="M11.4999 0C9.22546 0 7.00205 0.674463 5.11089 1.9381C3.21972 3.20174 1.74574 4.99779 0.875329 7.09914C0.00492171 9.20049 -0.222817 11.5128 0.220913 13.7435C0.664643 15.9743 1.75991 18.0234 3.36822 19.6317C4.97652 21.24 7.02562 22.3353 9.25641 22.779C11.4872 23.2228 13.7995 22.995 15.9008 22.1246C18.0022 21.2542 19.7982 19.7802 21.0618 17.8891C22.3255 15.9979 22.9999 13.7745 22.9999 11.5C22.9999 8.45001 21.7883 5.52494 19.6317 3.36827C17.475 1.2116 14.5499 0 11.4999 0V0ZM17.2 11.6347C17.1689 12.5897 16.8985 13.5217 16.4135 14.3451C15.9286 15.1685 15.2446 15.8569 14.4243 16.3471C13.6041 16.8374 12.6739 17.1138 11.719 17.151C10.7642 17.1882 9.81524 16.985 8.95935 16.56L6.08435 17.2439C6.04088 17.2539 5.99542 17.2506 5.95387 17.2344C5.91232 17.2182 5.87659 17.1899 5.85133 17.1532C5.83406 17.1286 5.82205 17.1007 5.81606 17.0713C5.81007 17.0419 5.81023 17.0115 5.81652 16.9822L6.42179 14.0436C6.02615 13.2684 5.81314 12.4129 5.79906 11.5427C5.78499 10.6725 5.97022 9.81055 6.34058 9.02294C6.71094 8.23533 7.2566 7.5429 7.9358 6.99867C8.615 6.45444 9.40973 6.07284 10.2591 5.88307C11.1085 5.69331 11.9901 5.70042 12.8363 5.90386C13.6826 6.10729 14.471 6.50167 15.1414 7.05678C15.8117 7.61189 16.3461 8.31303 16.7037 9.10651C17.0613 9.89999 17.2327 10.7648 17.2045 11.6347H17.2Z" fill="#05486A"/>
</svg>
