<svg width="23" height="23" viewBox="0 0 23 23" fill="none" xmlns="http://www.w3.org/2000/svg">
<path d="M14.6776 8.32215L14.6549 8.29945C13.9028 7.5513 12.9088 7.09539 11.8511 7.01337C10.7934 6.93135 9.74108 7.22859 8.88259 7.85184C8.02409 8.47509 7.41554 9.38364 7.16594 10.4147C6.91634 11.4458 7.04199 12.5321 7.5204 13.479L7.71711 13.8664L7.34941 15.6489V15.6716L9.11527 15.2524L9.51777 15.4521C10.3555 15.868 11.3026 16.0104 12.2255 15.8595C13.1485 15.7086 14.0009 15.2718 14.6625 14.6108C15.4932 13.7761 15.9608 12.6472 15.9636 11.4696C15.9665 10.292 15.5043 9.16085 14.6776 8.32215ZM14.4991 13.3156C14.2827 13.656 13.9392 14.0721 13.511 14.1766C12.7544 14.3596 11.6029 14.1766 10.1609 12.8435L10.1427 12.8268C8.88829 11.6556 8.5554 10.6796 8.62954 9.90642C8.67342 9.46761 9.03961 9.07116 9.34829 8.8109C9.39725 8.7692 9.45532 8.7396 9.51782 8.72449C9.58033 8.70938 9.64551 8.70918 9.70811 8.72391C9.7707 8.73864 9.82896 8.76788 9.87817 8.80928C9.92737 8.85067 9.96616 8.90306 9.99138 8.96221L10.4559 10.0214C10.4862 10.089 10.4976 10.1636 10.4888 10.2372C10.48 10.3107 10.4514 10.3805 10.406 10.4391L10.1699 10.7417C10.1209 10.8045 10.0916 10.8805 10.086 10.96C10.0803 11.0395 10.0985 11.1189 10.1382 11.1881C10.3625 11.518 10.6308 11.8158 10.9356 12.0733C11.2629 12.39 11.6351 12.6566 12.0402 12.8646C12.114 12.8946 12.195 12.9018 12.273 12.8854C12.3509 12.8689 12.4221 12.8296 12.4775 12.7723L12.7484 12.4985C12.7989 12.4405 12.8647 12.3979 12.9382 12.3754C13.0118 12.353 13.0902 12.3516 13.1645 12.3714L14.2691 12.6891C14.3305 12.7071 14.3869 12.7391 14.4338 12.7826C14.4807 12.8261 14.5169 12.8798 14.5395 12.9397C14.5621 12.9996 14.5705 13.0639 14.564 13.1275C14.5575 13.1912 14.5363 13.2524 14.5021 13.3065L14.4991 13.3156Z" fill="white"/>
<path d="M11.5 0C9.22549 0 7.00208 0.674463 5.11092 1.9381C3.21975 3.20174 1.74577 4.99779 0.87536 7.09914C0.00495222 9.20049 -0.222786 11.5128 0.220944 13.7435C0.664674 15.9743 1.75994 18.0234 3.36825 19.6317C4.97655 21.24 7.02565 22.3353 9.25644 22.779C11.4872 23.2228 13.7995 22.995 15.9008 22.1246C18.0022 21.2542 19.7982 19.7802 21.0619 17.8891C22.3255 15.9979 23 13.7745 23 11.5C23 8.45001 21.7884 5.52494 19.6317 3.36827C17.475 1.2116 14.55 0 11.5 0V0ZM17.2 11.6347C17.169 12.5897 16.8986 13.5217 16.4136 14.3451C15.9286 15.1685 15.2446 15.8569 14.4244 16.3471C13.6041 16.8374 12.6739 17.1138 11.719 17.151C10.7642 17.1882 9.81528 16.985 8.95938 16.56L6.08438 17.2439C6.04092 17.2539 5.99546 17.2506 5.9539 17.2344C5.91235 17.2182 5.87662 17.1899 5.85136 17.1532C5.83409 17.1286 5.82208 17.1007 5.81609 17.0713C5.8101 17.0419 5.81026 17.0115 5.81655 16.9822L6.42182 14.0436C6.02618 13.2684 5.81317 12.4129 5.79909 11.5427C5.78502 10.6725 5.97025 9.81055 6.34061 9.02294C6.71097 8.23533 7.25663 7.5429 7.93583 6.99867C8.61503 6.45444 9.40976 6.07284 10.2592 5.88307C11.1086 5.69331 11.9901 5.70042 12.8364 5.90386C13.6826 6.10729 14.4711 6.50167 15.1414 7.05678C15.8117 7.61189 16.3462 8.31303 16.7038 9.10651C17.0614 9.89999 17.2327 10.7648 17.2046 11.6347H17.2Z" fill="white"/>
</svg>
